<svg width="57" height="57" viewBox="0 0 57 57" fill="none" xmlns="http://www.w3.org/2000/svg">
<path fill-rule="evenodd" clip-rule="evenodd" d="M0.282154 37.2617C0.279179 37.3984 0.277683 37.5354 0.277683 37.6728C0.277683 47.9051 8.57258 56.2 18.8049 56.2C29.0371 56.2 37.332 47.9051 37.332 37.6728C37.332 37.5354 37.3305 37.3984 37.3276 37.2617L0.282154 37.2617Z" fill="#191C20"/>
<path fill-rule="evenodd" clip-rule="evenodd" d="M37.333 55.7842C37.4703 55.7872 37.608 55.7887 37.746 55.7887C47.9783 55.7887 56.2732 47.4938 56.2732 37.2615C56.2732 27.0293 47.9783 18.7344 37.746 18.7344C37.608 18.7344 37.4703 18.7359 37.333 18.7389L37.333 55.7842Z" fill="#191C20"/>
<path fill-rule="evenodd" clip-rule="evenodd" d="M56.1221 18.9375C56.1251 18.8008 56.1266 18.6638 56.1266 18.5264C56.1266 8.29414 47.8317 -0.000752752 37.5994 -0.000752305C27.3672 -0.000751858 19.0723 8.29415 19.0723 18.5264C19.0723 18.6638 19.0738 18.8008 19.0767 18.9375L56.1221 18.9375Z" fill="#191C20"/>
<path fill-rule="evenodd" clip-rule="evenodd" d="M19.0127 0.00489426C18.8747 0.00186158 18.7364 0.000339532 18.5977 0.000339544C8.36543 0.000340439 0.0705351 8.29524 0.0705359 18.5275C0.0705368 28.7598 8.36544 37.0547 18.5977 37.0547C18.7364 37.0547 18.8747 37.0532 19.0127 37.0501L19.0127 0.00489426Z" fill="#191C20"/>
</svg>
