<svg width="56" height="56" viewBox="0 0 56 56" fill="none" xmlns="http://www.w3.org/2000/svg">
<path fill-rule="evenodd" clip-rule="evenodd" d="M22.0703 22.4312C20.5279 21.9752 18.8949 21.7305 17.2046 21.7305C7.74161 21.7305 0.0703125 29.4018 0.0703125 38.8648C0.0703125 48.3278 7.74161 55.9991 17.2046 55.9991C26.6677 55.9991 34.339 48.3278 34.339 38.8648C34.339 36.944 34.0229 35.0971 33.44 33.3731H22.0703V22.4312Z" fill="#191C20"/>
<path fill-rule="evenodd" clip-rule="evenodd" d="M38.0992 34.2687C47.5622 34.2687 55.2335 26.5974 55.2335 17.1343C55.2335 7.6713 47.5622 0 38.0992 0C28.6361 0 20.9648 7.6713 20.9648 17.1343C20.9648 19.0084 21.2657 20.8122 21.8218 22.5H33.4156V33.6207C34.9042 34.0428 36.4753 34.2687 38.0992 34.2687Z" fill="#191C20"/>
</svg>
