<svg width="44" height="44" viewBox="0 0 44 44" fill="none" xmlns="http://www.w3.org/2000/svg">
<path fill-rule="evenodd" clip-rule="evenodd" d="M21.9309 43.1723C22.0905 43.1758 22.2506 43.1776 22.4111 43.1776C34.3342 43.1776 43.9998 33.5119 43.9998 21.5888C43.9998 9.66563 34.3342 0 22.4111 0C22.2506 0 22.0905 0.00175063 21.9309 0.00523383V43.1723Z" fill="#191C20"/>
<path fill-rule="evenodd" clip-rule="evenodd" d="M22.0691 0.0053978C21.9095 0.00191496 21.7494 0.000164004 21.589 0.00016399C9.6658 0.000162948 0.000166962 9.66579 0.000165919 21.5889C0.000164877 33.5121 9.66579 43.1777 21.5889 43.1777C21.7494 43.1777 21.9095 43.176 22.0691 43.1725L22.0691 0.0053978Z" fill="#191C20"/>
<rect x="21.9316" y="12.627" width="13.1589" height="13.1589" transform="rotate(45 21.9316 12.627)" fill="#FBDC6E"/>
</svg>
