<svg width="42" height="56" viewBox="0 0 42 56" fill="none" xmlns="http://www.w3.org/2000/svg">
<path fill-rule="evenodd" clip-rule="evenodd" d="M21.875 55.9952C22.0205 55.9984 22.1663 56 22.3125 56C33.1856 56 42 47.1856 42 36.3125C42 25.4394 33.1856 16.625 22.3125 16.625C22.1663 16.625 22.0205 16.6266 21.875 16.6298V55.9952Z" fill="#191C20"/>
<path fill-rule="evenodd" clip-rule="evenodd" d="M20.125 0.00476456C19.9796 0.00159453 19.8337 -2.54653e-08 19.6875 -3.82475e-08C8.8144 -9.88805e-07 2.67169e-06 8.81439 1.72114e-06 19.6875C7.70579e-07 30.5606 8.81439 39.375 19.6875 39.375C19.8337 39.375 19.9795 39.3734 20.125 39.3702L20.125 0.00476456Z" fill="#191C20"/>
</svg>
