<svg width="207" height="85" viewBox="0 0 207 85" fill="none" xmlns="http://www.w3.org/2000/svg">
    <path d="M10.7617 83.582L2.00077 78.7607L6.82215 69.9997" stroke="white" stroke-width="2"/>
    <g filter="url(#filter0_d_1_445)">
        <path d="M103.442 42.9205C103.104 42.9721 102.863 42.9443 102.717 42.8371C102.592 42.7267 102.481 42.4955 102.384 42.1434L101.185 36.2084L101.082 35.3179L100.663 32.3713C100.196 29.3135 99.8338 27.0165 99.5773 25.4802C99.4788 24.9774 99.2925 23.8297 99.0184 22.0372L98.8566 20.767C98.8211 20.5351 98.758 20.4044 98.6672 20.3752C98.5731 20.3248 98.3331 20.3075 97.9471 20.3234C97.5188 20.3457 97.2098 20.3714 97.02 20.4004C96.4296 20.4907 95.8885 20.6922 95.3967 21.0047C95.3154 21.3193 95.3351 21.9422 95.4559 22.8733C95.5767 23.8044 95.7402 24.9448 95.9466 26.2944C95.9739 26.6139 96.1957 27.9936 96.6119 30.4334L97.0037 32.9956C97.065 33.3963 97.1958 33.9698 97.3963 34.716C97.6161 35.5889 97.7614 36.2572 97.8324 36.7212C97.8775 37.0164 97.9145 37.3992 97.9432 37.8696L98.0615 38.855L98.7711 42.4369C98.8163 42.7322 98.7658 42.9665 98.6196 43.1399C98.4735 43.3133 98.2512 43.4121 97.9528 43.4361C97.3623 43.5264 97.0235 43.2869 96.9365 42.7175C96.6611 40.4936 96.3526 38.2639 96.0107 36.0286L95.7834 34.5418C95.4897 32.9034 95.2605 31.6867 95.0958 30.8918C94.9569 30.2656 94.776 29.3653 94.5533 28.1908C94.2353 26.5345 93.7874 24.0996 93.2097 20.886C93.1548 20.5275 93.1883 20.2526 93.3102 20.0613C93.4498 19.8457 93.6868 19.7016 94.021 19.6289C96.2077 19.2513 97.8599 18.9771 98.9776 18.8062C99.3782 18.7449 99.7245 18.8215 100.016 19.0359C100.329 19.247 100.471 19.5383 100.441 19.9097C100.434 20.4287 100.481 21.015 100.581 21.6688C100.655 22.1538 100.722 22.5212 100.782 22.7711C100.811 22.9609 100.846 23.1928 100.888 23.467C100.951 23.7379 100.999 24.0542 101.033 24.416C101.083 24.8831 101.161 25.4647 101.268 26.1606C101.458 27.6854 101.569 28.7689 101.603 29.4113C101.698 29.8931 101.838 30.6701 102.024 31.7424C102.227 32.7903 102.384 33.5325 102.494 33.9689C102.492 34.3793 102.523 34.7953 102.588 35.2171C102.662 35.7021 102.84 36.4411 103.121 37.434C103.318 38.1592 103.459 38.731 103.545 39.1496L103.693 39.9039C103.838 40.5723 103.935 41.0646 103.983 41.3809L104.058 42.0817C104.153 42.5635 103.948 42.8431 103.442 42.9205ZM111.952 41.9105C111.404 41.9944 110.87 41.8925 110.351 41.6049C109.836 41.3385 109.385 40.9326 109 40.3873C108.192 39.1944 107.598 37.8501 107.218 36.3543C106.809 34.9493 106.503 33.5825 106.299 32.254C106.261 32.0009 106.239 31.7884 106.234 31.6165L106.147 31.0471C106.131 30.9417 106.113 30.8906 106.091 30.8938L106.004 30.3244L105.697 28.1053C105.615 27.4273 105.535 26.3389 105.457 24.8401C105.408 23.8118 105.5 22.7941 105.735 21.7871C105.818 21.3427 105.959 20.9974 106.159 20.751C106.356 20.4836 106.601 20.3273 106.897 20.2822C107.74 20.1532 108.524 20.1952 109.247 20.4084C109.967 20.6004 110.601 20.9351 111.148 21.4125C111.651 21.8752 112.109 22.4741 112.524 23.2092C112.935 23.9232 113.27 24.7029 113.529 25.5482C113.791 26.4145 113.998 27.3433 114.149 28.3344L114.188 28.5875C114.288 29.2412 114.389 29.8301 114.49 30.354L114.798 32.1523C115.726 38.2257 114.778 41.4784 111.952 41.9105ZM111.622 40.6013C112.002 40.5433 112.327 40.3424 112.598 39.9988C112.866 39.6341 113.044 39.1753 113.133 38.6223C113.369 37.4855 113.434 36.2886 113.328 35.0315C113.269 33.9399 113.18 33.0039 113.061 32.2237C112.915 31.2747 112.651 30.0418 112.268 28.5249C111.893 26.9205 111.645 25.7176 111.522 24.9162L111.435 24.3468C111.27 23.5519 110.89 22.8979 110.294 22.3849C109.718 21.8686 109.072 21.6652 108.355 21.7749C107.638 21.8845 107.226 22.3683 107.12 23.2262C107.009 23.9122 107.033 24.7718 107.191 25.8051C107.252 26.2058 107.314 26.5416 107.377 26.8125L107.508 27.6666L107.667 29.1314C107.693 29.5807 107.746 30.0689 107.826 30.5961C108 31.7349 108.205 32.8583 108.439 33.9663C108.765 35.535 109.211 37.0422 109.778 38.4879C110.354 39.9968 110.969 40.7013 111.622 40.6013ZM120.288 40.2474C119.843 39.1717 119.469 37.6426 119.165 35.6604L118.798 32.8354C118.711 31.9854 118.589 31.0438 118.431 30.0105C118.259 29.7346 118.156 29.4806 118.12 29.2487L118.106 29.1538C118.255 28.7208 118.222 27.7979 118.006 26.385L117.815 24.9251C117.765 24.4579 117.697 23.9397 117.61 23.3703C117.42 22.1261 117.185 21.1584 116.907 20.4672C116.925 20.1623 116.992 19.8931 117.107 19.6596C117.219 19.4051 117.381 19.2617 117.592 19.2294L118.983 19.0166C119.574 18.9263 120.112 18.9844 120.596 19.1908C121.078 19.3762 121.472 19.6936 121.778 20.1432C122.332 20.9433 122.699 21.9338 122.88 23.1148C123.009 23.9583 123.1 24.6242 123.153 25.1124C123.204 25.7304 123.184 26.3054 123.093 26.8373C123.072 27.1211 123.012 27.3676 122.915 27.5768C122.835 27.7616 122.709 27.9967 122.537 28.282C122.296 28.6856 121.863 29.0972 121.237 29.5167C120.985 29.7062 120.647 29.8981 120.224 30.0924L120.741 33.477L121.114 35.4918L121.328 36.4628C121.592 37.6308 121.788 38.626 121.914 39.4485C121.952 39.7015 121.879 39.9285 121.694 40.1295C121.512 40.3515 121.284 40.4835 121.01 40.5254L120.288 40.2474ZM120.057 28.7906C121.272 28.4106 121.622 26.5335 121.106 23.1594C121.013 22.5478 120.908 22.0782 120.794 21.7504C120.692 21.507 120.577 21.3196 120.449 21.1881C120.317 21.0355 120.138 20.9226 119.911 20.8494C119.66 20.7584 119.397 20.7338 119.123 20.7757C119.12 20.7546 119.002 20.7618 118.77 20.7973L119.046 22.6004C119.236 23.8446 119.416 24.9501 119.585 25.9169C119.753 27.0135 119.873 27.7289 119.946 28.0631L120.048 28.7273L120.057 28.7906ZM134.73 38.1038C134.245 38.178 133.875 38.159 133.62 38.0468C133.366 37.9347 133.208 37.6783 133.146 37.2776C133.05 36.645 132.78 35.5856 132.337 34.0995L132.109 33.4545L128.905 33.4589C128.852 33.9633 128.823 34.9713 128.817 36.483C128.848 37.5356 128.753 38.2516 128.53 38.631C128.411 38.8433 128.215 38.9705 127.941 39.0124C127.688 39.0511 127.445 39.0128 127.211 38.8974C126.974 38.7609 126.838 38.5767 126.803 38.3447L126.842 38.1769L126.854 38.0455C127.417 32.413 127.654 26.9059 127.565 21.5243C127.552 21.4399 127.542 21.3012 127.534 21.1082C127.523 20.8941 127.499 20.5956 127.462 20.2128C127.406 19.4229 127.374 18.7911 127.366 18.3175C127.38 17.8406 127.453 17.4733 127.586 17.2156L128.662 17.0511C128.957 17.006 129.221 17.0411 129.455 17.1565C129.685 17.2507 129.819 17.4244 129.858 17.6775C130.103 19.2802 130.689 21.6293 131.615 24.7248C132.534 27.9079 133.093 30.1532 133.293 31.4606C133.312 31.5872 133.415 31.906 133.601 32.4171C133.781 32.886 133.882 33.1942 133.904 33.3418C133.927 33.4895 134.129 34.106 134.511 35.1914C134.855 36.1746 135.05 36.8138 135.095 37.1091L135.1 37.1407C135.171 37.6047 135.048 37.9257 134.73 38.1038ZM131.713 32.3496C131.601 32.043 131.51 31.6577 131.439 31.1938C131.149 29.2958 130.609 26.8965 129.821 23.9957L129.001 20.7543C128.852 25.8487 128.803 29.687 128.852 32.2692C129.201 32.4317 130.154 32.4585 131.713 32.3496ZM139.141 37.1379C138.472 37.2833 138.104 36.9943 138.037 36.2708L137.735 34.0833C137.685 33.6162 137.586 32.8976 137.438 31.9275L137.08 29.5867C136.922 28.5534 136.792 27.7747 136.69 27.2508C136.566 26.5792 136.402 25.5791 136.199 24.2505L135.744 21.2771L135.623 20.4863C135.536 19.9169 135.443 19.4456 135.342 19.0725C135.263 18.6961 135.128 18.3067 134.937 17.9043C134.869 17.7421 134.829 17.6188 134.816 17.5344C134.761 17.1759 134.839 16.8402 135.05 16.5274C135.283 16.2113 135.597 16.0121 135.995 15.9298C136.561 15.8216 137.104 15.7061 137.625 15.5833C138.167 15.4573 138.683 15.3029 139.173 15.1201C139.35 15.0067 139.569 15.0272 139.83 15.1815C140.088 15.3147 140.254 15.4836 140.328 15.688C140.396 15.8502 140.38 16.0254 140.279 16.2135C140.175 16.3804 140.022 16.5117 139.821 16.6072C139.398 16.8014 138.461 17.0958 137.01 17.4902L137.92 25.3469C138.907 25.304 139.697 25.4637 140.292 25.8259C140.887 26.1882 141.363 26.9031 141.721 27.9706C142.085 28.7998 142.343 29.7099 142.494 30.7011C142.591 31.3337 142.628 31.9971 142.604 32.6913C142.519 34.1072 141.967 35.2274 140.949 36.0521C140.836 36.1558 140.664 36.3008 140.433 36.4871C140.224 36.6702 140.01 36.8216 139.791 36.9415C139.589 37.037 139.373 37.1025 139.141 37.1379ZM139.512 35.333C139.915 35.142 140.256 34.8309 140.535 34.3997C140.814 33.9686 140.973 33.5235 141.011 33.0645C141.075 32.213 141.047 31.3972 140.928 30.6169C140.802 29.7945 140.584 29.0076 140.275 28.2564C140.071 27.7696 139.811 27.4101 139.495 27.1779C139.197 26.9214 138.772 26.8245 138.221 26.8872L139.512 35.333ZM150.288 36.0485C149.739 36.1323 149.206 36.0305 148.687 35.7429C148.172 35.4764 147.721 35.0705 147.335 34.5252C146.527 33.3324 145.933 31.988 145.553 30.4923C145.144 29.0873 144.838 27.7205 144.635 26.392C144.596 26.1389 144.575 25.9264 144.57 25.7545L144.483 25.1851C144.467 25.0797 144.448 25.0285 144.427 25.0318L144.34 24.4624L144.033 22.2433C143.951 21.5652 143.871 20.4768 143.793 18.9781C143.743 17.9497 143.836 16.9321 144.07 15.925C144.154 15.4807 144.295 15.1354 144.495 14.889C144.691 14.6216 144.937 14.4653 145.232 14.4201C146.076 14.2911 146.859 14.3332 147.582 14.5463C148.302 14.7384 148.936 15.0731 149.484 15.5504C149.986 16.0131 150.445 16.6121 150.859 17.3472C151.271 18.0612 151.606 18.8409 151.864 19.6861C152.126 20.5525 152.333 21.4812 152.485 22.4724L152.523 22.7254C152.623 23.3792 152.724 23.968 152.826 24.492L153.133 26.2902C154.062 32.3636 153.113 35.6164 150.288 36.0485ZM149.958 34.7393C150.338 34.6812 150.663 34.4804 150.934 34.1368C151.202 33.7721 151.38 33.3133 151.468 32.7603C151.704 31.6235 151.77 30.4266 151.664 29.1695C151.605 28.0778 151.515 27.1419 151.396 26.3616C151.251 25.4127 150.987 24.1797 150.604 22.6629C150.229 21.0584 149.98 19.8555 149.858 19.0542L149.771 18.4848C149.606 17.6899 149.226 17.0359 148.629 16.5228C148.054 16.0065 147.408 15.8032 146.691 15.9128C145.974 16.0225 145.562 16.5062 145.456 17.3642C145.345 18.0501 145.369 18.9098 145.527 19.9431C145.588 20.3438 145.65 20.6796 145.713 20.9505L145.844 21.8046L146.003 23.2693C146.028 23.7186 146.081 24.2069 146.162 24.7341C146.336 25.8729 146.54 26.9962 146.774 28.1042C147.101 29.673 147.547 31.1802 148.113 32.6258C148.689 34.1348 149.304 34.8392 149.958 34.7393ZM159.588 33.4934L159.367 32.2646C159.291 31.9093 159.22 31.5102 159.152 31.0674L159.019 29.987C158.92 29.7647 158.409 27.4798 157.485 23.1321C156.561 18.7845 155.983 15.9918 155.751 14.754C154.521 14.8989 153.722 14.8916 153.352 14.7324C153.094 14.5991 152.949 14.4271 152.917 14.2162C152.891 14.0475 152.974 13.8837 153.166 13.725C153.375 13.5419 153.596 13.4326 153.828 13.3971C154.418 13.3068 155.142 13.2394 155.998 13.1947C156.816 13.1776 157.541 13.1207 158.173 13.024L158.426 12.9853L158.679 12.9466C159.333 12.8466 159.699 13.0497 159.776 13.5558C159.815 13.8089 159.742 14.0359 159.556 14.2368C159.368 14.4167 159.137 14.5276 158.863 14.5695C158.673 14.5985 158.394 14.6088 158.026 14.6004L157.374 14.5706L157.366 14.7336L157.359 14.8966C157.646 16.7734 158.283 19.7406 159.27 23.7979C160.198 27.6055 160.825 30.5742 161.15 32.7041C161.189 32.9572 161.107 33.1963 160.904 33.4216C160.722 33.6436 160.494 33.7756 160.22 33.8175L159.588 33.4934ZM172.262 32.3646C171.777 32.4388 171.407 32.4198 171.153 32.3076C170.898 32.1955 170.74 31.9391 170.679 31.5384C170.582 30.9057 170.312 29.8464 169.869 28.3603L169.641 27.7153L166.437 27.7197C166.385 28.2241 166.355 29.2321 166.349 30.7437C166.381 31.7964 166.285 32.5124 166.062 32.8917C165.944 33.1041 165.748 33.2313 165.473 33.2732C165.22 33.3119 164.977 33.2735 164.744 33.1582C164.507 33.0217 164.371 32.8375 164.335 32.6055L164.374 32.4377L164.387 32.3063C164.95 26.6738 165.187 21.1667 165.098 15.785C165.085 15.7007 165.074 15.562 165.066 15.369C165.055 15.1549 165.031 14.8564 164.994 14.4736C164.938 13.6837 164.906 13.0519 164.899 12.5783C164.912 12.1014 164.985 11.7341 165.119 11.4764L166.194 11.3119C166.489 11.2668 166.754 11.3019 166.987 11.4172C167.217 11.5115 167.352 11.6852 167.391 11.9383C167.636 13.541 168.221 15.8901 169.148 18.9856C170.066 22.1687 170.625 24.414 170.825 25.7214C170.845 25.8479 170.947 26.1668 171.133 26.6778C171.313 27.1467 171.414 27.455 171.437 27.6026C171.459 27.7502 171.662 28.3668 172.043 29.4522C172.388 30.4354 172.583 31.0746 172.628 31.3699L172.633 31.4015C172.704 31.8654 172.58 32.1865 172.262 32.3646ZM169.246 26.6104C169.134 26.3038 169.043 25.9185 168.972 25.4545C168.682 23.5566 168.142 21.1573 167.353 18.2565L166.534 15.0151C166.385 20.1095 166.335 23.9478 166.385 26.53C166.733 26.6925 167.687 26.7193 169.246 26.6104ZM176.958 31.7761C176.683 31.818 176.416 31.7618 176.155 31.6075C175.915 31.4499 175.763 31.2357 175.7 30.9648L175.575 30.1423L175.478 29.5097C175.428 29.3231 175.383 29.1033 175.345 28.8502C175.277 28.4074 175.142 27.7374 174.94 26.8403L174.567 24.8255C174.409 23.7922 174.206 22.2479 173.956 20.1927C173.76 18.3451 173.567 16.7992 173.376 15.555C173.331 15.2598 173.232 14.8217 173.078 14.2409C172.922 13.6391 172.822 13.201 172.78 12.9269C172.551 11.4296 172.88 10.6133 173.766 10.4779C174.461 10.3714 175.284 10.386 176.232 10.5215C177.202 10.6537 177.716 10.9096 177.774 11.2892C177.806 11.5001 177.742 11.715 177.581 11.9338C177.439 12.1283 177.249 12.2976 177.012 12.4417C176.078 12.2609 175.244 12.1725 174.511 12.1767C174.58 12.4898 174.66 12.9416 174.75 13.5321C174.879 14.3756 174.985 15.1364 175.067 15.8144C175.159 16.8363 175.243 17.6003 175.32 18.1065L175.493 18.5981L175.994 18.489C176.16 18.4422 176.369 18.3994 176.622 18.3607C177.634 18.2059 178.185 18.4237 178.276 19.0142C178.311 19.2462 178.247 19.461 178.083 19.6587C177.916 19.8354 177.684 19.9463 177.389 19.9914C177.01 20.0495 176.711 20.0735 176.494 20.0636L175.703 20.1845C175.829 20.7264 175.973 21.5245 176.134 22.5789C176.295 23.6333 176.43 24.5839 176.538 25.4306C176.671 26.7267 176.786 27.6911 176.883 28.3237C177.063 29.5046 177.175 30.0919 177.217 30.0854L178.256 29.8942C178.611 29.8183 179.042 29.7416 179.548 29.6642C180.349 29.5417 180.789 29.7335 180.866 30.2396C180.911 30.5348 180.808 30.7772 180.557 30.9668C180.329 31.1742 180.026 31.3069 179.646 31.3649L176.958 31.7761ZM197.428 29.9083C196.774 30.0083 196.348 29.4046 196.148 28.0971L195.838 26.0726L195.529 24.0482C195.367 22.9937 195.082 21.6238 194.673 19.9382C194.211 18.0449 193.925 16.7398 193.816 16.0228L193.579 14.052C193.534 13.4761 193.457 12.8297 193.347 12.1127C193.305 12.3998 193.179 13.9081 192.971 16.6376C192.75 19.2828 192.478 21.7414 192.157 24.0135C191.843 26.1979 191.486 27.3208 191.085 27.3821C190.685 27.4433 190.34 27.3773 190.052 27.1841C189.781 26.9665 189.613 26.6468 189.549 26.225C189.407 25.2971 188.726 23.3834 187.506 20.4839C186.306 17.5812 185.254 15.217 184.349 13.3915L184.706 16.995C184.998 20.0364 185.266 22.5636 185.509 24.5767C185.764 26.5233 185.946 27.855 186.056 28.572C186.081 28.7407 186.116 28.8973 186.16 29.0417L186.227 29.4845C186.282 29.843 186.249 30.1179 186.127 30.3092C186.008 30.5216 185.749 30.6584 185.348 30.7197C185.137 30.7519 184.924 30.6982 184.708 30.5585C184.496 30.4399 184.375 30.2857 184.346 30.0959C184.017 27.9449 183.682 24.6942 183.341 20.3439C182.999 15.9935 182.664 12.7428 182.335 10.5918C182.179 10.4214 182.085 10.2307 182.053 10.0198C182.015 9.76678 182.102 9.55925 182.314 9.39725C182.545 9.21094 182.829 9.09199 183.166 9.04039C183.44 8.99847 184.098 9.91223 185.139 11.7817C186.18 13.6511 187.262 15.7841 188.384 18.1807C189.505 20.5774 190.257 22.3184 190.639 23.4038C190.721 22.8087 190.777 22.2605 190.808 21.7593L190.882 20.9711C191.105 17.9156 191.372 15.1448 191.683 12.6586C191.861 11.1422 192.077 9.94383 192.331 9.06334C192.575 8.11959 192.855 7.62353 193.171 7.57516C193.467 7.53002 193.743 7.57406 194.001 7.7073C194.277 7.81622 194.434 7.99721 194.472 8.25027C194.705 9.76862 195.116 12.0365 195.707 15.0538C196.287 17.8571 196.696 20.039 196.935 21.5995L197.159 23.2808L197.352 24.967C197.391 25.2201 197.481 25.5948 197.621 26.0913L197.886 27.1839C197.936 27.3705 197.969 27.5165 197.985 27.6219C198.022 27.7241 198.042 27.7858 198.046 27.8069C198.193 28.0649 198.276 28.2572 198.296 28.3837C198.351 28.7422 198.293 29.0746 198.124 29.381C197.956 29.6874 197.723 29.8632 197.428 29.9083ZM102.965 75.3654C102.501 75.4364 102.185 75.2796 102.019 74.895C101.896 74.6548 101.799 74.3028 101.728 73.8388C101.589 72.9321 101.46 71.8079 101.342 70.4665C101.253 69.1851 101.134 68.0488 100.982 67.0576C100.811 65.94 100.586 64.2586 100.308 62.0136L99.6069 57.006C99.5779 56.8162 99.5027 56.5364 99.3814 56.1664L99.1656 55.3901L99.1414 55.232C99.0673 54.747 99.0863 54.3772 99.1984 54.1226C99.3105 53.8681 99.567 53.7102 99.9676 53.6489C100.516 53.5651 101.141 53.6313 101.843 53.8477C102.545 54.064 103.081 54.3922 103.45 54.832C104.217 55.7508 104.716 56.9693 104.948 58.4877C105.122 59.6264 105.174 60.6004 105.104 61.4097C105.03 62.1979 104.811 62.9544 104.447 63.679C105.1 64.1403 105.588 64.7887 105.91 65.6243C106.25 66.4356 106.518 67.4844 106.715 68.7708C106.912 70.0571 106.861 71.2087 106.563 72.2254C106.222 73.3783 105.596 74.2292 104.688 74.7782C104.129 75.0794 103.555 75.2751 102.965 75.3654ZM102.124 63.0955C103.218 62.9067 103.571 61.547 103.184 59.0164C102.768 56.296 102.118 54.9387 101.234 54.9444C101.076 55.4649 101.134 56.6214 101.408 58.4139L102.124 63.0955ZM103.54 73.6264C104.193 73.3756 104.659 72.8943 104.938 72.1825C105.218 71.4707 105.293 70.6931 105.164 69.8496C105.029 68.9639 104.857 68.1917 104.648 67.533C104.483 67.0187 104.301 66.6041 104.102 66.2892C103.92 65.9501 103.691 65.6506 103.414 65.3909C103.113 65.1132 102.788 64.9686 102.441 64.9569C102.541 66.1718 102.742 67.7705 103.045 69.7528C103.065 69.8793 103.105 70.2832 103.166 70.9645L103.267 72.0496C103.273 72.0918 103.289 72.1218 103.313 72.1397L103.323 72.203L103.54 73.6264ZM124.018 73.5056C123.365 73.6056 122.938 73.0018 122.738 71.6944L122.428 69.6699L122.119 67.6454C121.958 66.591 121.673 65.221 121.264 63.5355C120.802 61.6422 120.516 60.3371 120.406 59.6201L120.169 57.6492C120.125 57.0734 120.047 56.427 119.938 55.71C119.895 55.997 119.77 57.5053 119.561 60.2349C119.34 62.8801 119.068 65.3387 118.747 67.6107C118.433 69.7952 118.076 70.9181 117.676 70.9793C117.275 71.0406 116.93 70.9746 116.642 70.7813C116.371 70.5638 116.204 70.2441 116.139 69.8223C115.997 68.8944 115.316 66.9807 114.096 64.0812C112.897 61.1785 111.845 58.8143 110.94 56.9888L111.296 60.5923C111.589 63.6337 111.857 66.1609 112.1 68.174C112.354 70.1205 112.536 71.4523 112.646 72.1693C112.672 72.338 112.706 72.4946 112.75 72.639L112.818 73.0818C112.873 73.4403 112.839 73.7152 112.717 73.9065C112.599 74.1189 112.339 74.2557 111.938 74.3169C111.727 74.3492 111.514 74.2955 111.299 74.1558C111.086 74.0372 110.966 73.883 110.936 73.6932C110.608 71.5422 110.272 68.2915 109.931 63.9412C109.589 59.5908 109.254 56.3401 108.925 54.1891C108.77 54.0187 108.676 53.828 108.644 53.6171C108.605 53.3641 108.692 53.1565 108.904 52.9945C109.135 52.8082 109.419 52.6893 109.756 52.6377C110.03 52.5958 110.688 53.5095 111.729 55.3789C112.77 57.2484 113.852 59.3814 114.974 61.778C116.096 64.1747 116.847 65.9157 117.229 67.0011C117.311 66.4059 117.367 65.8578 117.399 65.3566L117.472 64.5684C117.696 61.5129 117.963 58.742 118.273 56.2559C118.451 54.7395 118.667 53.5411 118.921 52.6606C119.165 51.7169 119.445 51.2208 119.762 51.1724C120.057 51.1273 120.333 51.1713 120.591 51.3046C120.867 51.4135 121.024 51.5945 121.063 51.8476C121.295 53.3659 121.706 55.6338 122.297 58.6511C122.877 61.4544 123.286 63.6362 123.525 65.1968L123.75 66.8781L123.943 68.5643C123.981 68.8174 124.071 69.1921 124.212 69.6886L124.476 70.7812C124.526 70.9678 124.559 71.1138 124.575 71.2192C124.612 71.3214 124.633 71.3831 124.636 71.4042C124.783 71.6622 124.867 71.8545 124.886 71.981C124.941 72.3395 124.884 72.6719 124.715 72.9783C124.546 73.2847 124.314 73.4605 124.018 73.5056ZM130.268 71.2874C129.994 71.3293 129.727 71.2731 129.466 71.1188C129.226 70.9613 129.074 70.747 129.011 70.4761L128.886 69.6537L128.789 69.021C128.739 68.8345 128.694 68.6146 128.656 68.3616C128.588 67.9187 128.453 67.2487 128.251 66.3516L127.878 64.3368C127.72 63.3035 127.517 61.7592 127.267 59.704C127.071 57.8564 126.878 56.3105 126.687 55.0663C126.642 54.7711 126.543 54.3331 126.389 53.7523C126.233 53.1504 126.133 52.7124 126.091 52.4382C125.862 50.941 126.191 50.1246 127.076 49.9892C127.772 49.8828 128.595 49.8973 129.543 50.0328C130.513 50.1651 131.027 50.421 131.085 50.8006C131.117 51.0115 131.053 51.2263 130.892 51.4451C130.749 51.6396 130.56 51.8089 130.323 51.9531C129.389 51.7722 128.555 51.6838 127.822 51.688C127.891 52.0011 127.971 52.4529 128.061 53.0434C128.19 53.8869 128.296 54.6477 128.378 55.3258C128.47 56.3477 128.554 57.1117 128.631 57.6178L128.804 58.1094L129.305 58.0004C129.47 57.9535 129.68 57.9107 129.933 57.872C130.945 57.7172 131.496 57.9351 131.587 58.5255C131.622 58.7575 131.558 58.9724 131.394 59.1701C131.227 59.3467 130.995 59.4576 130.7 59.5028C130.321 59.5608 130.022 59.5849 129.805 59.5749L129.014 59.6959C129.14 60.2377 129.284 61.0358 129.445 62.0902C129.606 63.1447 129.741 64.0952 129.848 64.942C129.982 66.238 130.097 67.2024 130.194 67.835C130.374 69.016 130.486 69.6032 130.528 69.5968L131.567 69.4055C131.922 69.3296 132.353 69.253 132.859 69.1756C133.66 69.053 134.1 69.2448 134.177 69.7509C134.222 70.0462 134.119 70.2886 133.867 70.4781C133.64 70.6855 133.337 70.8182 132.957 70.8763L130.268 71.2874ZM142.046 69.5188C141.582 69.5898 141.075 69.5917 140.526 69.5247C140 69.4756 139.587 69.3876 139.288 69.2608C137.736 68.5701 136.651 66.2003 136.031 62.1513L135.901 61.2973L135.751 60.3167L135.635 59.5575C135.506 58.7139 135.402 57.9637 135.323 57.3067C135.241 56.6287 135.172 55.8947 135.116 55.1048C135.053 54.2727 135.047 53.5939 135.096 53.0684C135.142 52.5218 135.262 51.8991 135.458 51.2002C135.617 50.55 135.85 50.0288 136.157 49.6365C136.485 49.2411 136.927 48.8822 137.482 48.5599C137.973 48.2474 138.609 48.0314 139.39 47.9121C139.706 47.8637 139.96 47.9005 140.151 48.0223C140.342 48.1441 140.456 48.321 140.491 48.553C140.523 48.7638 140.479 48.9649 140.357 49.1562C140.256 49.3443 140.112 49.4633 139.926 49.5134L138.439 49.7408C138.017 49.8053 137.689 50.1253 137.453 50.7009C137.217 51.2765 137.101 51.9957 137.103 52.8586C137.068 54.461 137.124 55.7473 137.272 56.7173L137.297 56.8755L137.698 59.9219C137.794 60.8351 137.929 61.8611 138.104 62.9999C138.226 63.8012 138.358 64.4501 138.498 64.9466C138.72 65.6896 138.996 66.2949 139.326 66.7623C139.666 67.293 140.162 67.6381 140.812 67.7976C141.148 67.8758 141.505 67.8858 141.885 67.8278C142.117 67.7923 142.336 67.6725 142.542 67.4683C142.816 67.4264 143.047 67.4558 143.235 67.5565C143.441 67.633 143.562 67.7871 143.597 68.0191C143.723 68.8416 143.206 69.3415 142.046 69.5188ZM148.269 67.5962L148.048 66.3673C147.972 66.0121 147.901 65.613 147.833 65.1702L147.7 64.0898C147.601 63.8675 147.09 61.5825 146.166 57.2349C145.242 52.8872 144.664 50.0945 144.432 48.8568C143.202 49.0016 142.403 48.9944 142.033 48.8351C141.775 48.7019 141.63 48.5298 141.598 48.319C141.572 48.1503 141.655 47.9865 141.847 47.8277C142.056 47.6447 142.277 47.5354 142.509 47.4999C143.099 47.4096 143.823 47.3421 144.679 47.2975C145.497 47.2804 146.222 47.2235 146.854 47.1268L147.107 47.0881L147.36 47.0494C148.014 46.9494 148.38 47.1525 148.457 47.6586C148.496 47.9117 148.423 48.1387 148.237 48.3396C148.049 48.5195 147.818 48.6304 147.544 48.6723C147.354 48.7013 147.075 48.7116 146.707 48.7032L146.055 48.6734L146.047 48.8364L146.04 48.9994C146.327 50.8762 146.964 53.8433 147.951 57.9007C148.879 61.7083 149.506 64.677 149.831 66.8069C149.87 67.06 149.788 67.2991 149.585 67.5244C149.403 67.7464 149.175 67.8784 148.901 67.9203L148.269 67.5962ZM156.186 67.3243C155.912 67.3662 155.644 67.31 155.383 67.1557C155.143 66.9981 154.992 66.7839 154.929 66.513L154.803 65.6905L154.706 65.0579C154.656 64.8713 154.612 64.6515 154.573 64.3984C154.505 63.9556 154.371 63.2856 154.169 62.3885L153.796 60.3737C153.638 59.3404 153.434 57.7961 153.185 55.7409C152.988 53.8933 152.795 52.3474 152.605 51.1032C152.56 50.808 152.46 50.37 152.307 49.7892C152.15 49.1873 152.051 48.7493 152.009 48.4751C151.78 46.9778 152.108 46.1615 152.994 46.0261C153.69 45.9196 154.512 45.9342 155.461 46.0697C156.431 46.2019 156.945 46.4579 157.003 46.8374C157.035 47.0483 156.971 47.2632 156.81 47.482C156.667 47.6765 156.477 47.8458 156.24 47.9899C155.306 47.8091 154.472 47.7207 153.739 47.7249C153.809 48.038 153.889 48.4898 153.979 49.0803C154.108 49.9238 154.213 50.6846 154.296 51.3626C154.387 52.3845 154.472 53.1486 154.549 53.6547L154.721 54.1463L155.222 54.0373C155.388 53.9904 155.597 53.9476 155.85 53.9089C156.863 53.7541 157.414 53.9719 157.504 54.5624C157.54 54.7944 157.475 55.0092 157.311 55.207C157.144 55.3836 156.913 55.4945 156.618 55.5396C156.238 55.5977 155.94 55.6217 155.722 55.6118L154.931 55.7327C155.057 56.2746 155.201 57.0727 155.362 58.1271C155.524 59.1815 155.658 60.1321 155.766 60.9789C155.899 62.2749 156.015 63.2393 156.111 63.8719C156.292 65.0528 156.403 65.6401 156.445 65.6336L157.484 65.4424C157.84 65.3665 158.27 65.2898 158.777 65.2124C159.578 65.0899 160.017 65.2817 160.095 65.7878C160.14 66.083 160.037 66.3254 159.785 66.515C159.558 66.7224 159.254 66.8551 158.875 66.9131L156.186 67.3243ZM165.218 61.9938C164.796 62.0583 164.507 61.865 164.352 61.414C164.155 60.1276 164.036 58.7107 163.994 57.1634C163.972 55.6128 163.985 53.7224 164.033 51.4923L164.051 50.5508C164.065 48.6709 163.978 47.1089 163.787 45.8647C163.487 43.9035 163.021 42.9713 162.388 43.068C161.988 43.1293 161.86 43.6344 162.005 44.5834C162.041 44.8154 162.201 45.3734 162.488 46.2577C162.491 46.2788 162.448 46.3501 162.359 46.4716C162.048 46.8428 161.809 47.0413 161.64 47.0671C161.05 47.1573 160.647 46.496 160.431 45.0831L160.382 44.7668C160.298 44.2185 160.28 43.7465 160.328 43.3508C160.393 42.9308 160.561 42.549 160.832 42.2054C161.146 41.8553 161.566 41.64 162.093 41.5593C162.557 41.4884 162.971 41.5115 163.334 41.6286C163.697 41.7457 164.007 41.9358 164.263 42.1987C164.677 42.6533 165.003 43.3697 165.239 44.3479C165.295 44.5766 165.369 44.9863 165.459 45.5767C165.743 47.4325 165.736 49.5053 165.439 51.7952C165.303 52.744 165.247 53.9287 165.27 55.3496C165.29 56.7493 165.413 58.1873 165.638 59.6635C165.816 60.8233 165.934 61.5282 165.994 61.778C165.614 61.836 165.407 61.8894 165.371 61.938C165.332 61.9655 165.281 61.9842 165.218 61.9938ZM165.764 65.5683C165.448 65.6166 165.176 65.5288 164.947 65.3048C164.683 65.1294 164.527 64.8835 164.478 64.5672C164.433 64.2719 164.518 63.9784 164.732 63.6867C164.943 63.3738 165.207 63.1932 165.523 63.1449C165.776 63.1062 166.05 63.2046 166.345 63.44C166.64 63.6755 166.807 63.9197 166.846 64.1728C166.968 64.9741 166.608 65.4393 165.764 65.5683Z" fill="white"/>
    </g>
    <path d="M2.5 78.5C14 76 52.5 65 73.5 52" stroke="white" stroke-width="2" stroke-linecap="round" stroke-linejoin="round"/>
    <defs>
        <filter id="filter0_d_1_445" x="90.0308" y="2.18506" width="116.31" height="78.7217" filterUnits="userSpaceOnUse" color-interpolation-filters="sRGB">
            <feFlood flood-opacity="0" result="BackgroundImageFix"/>
            <feColorMatrix in="SourceAlpha" type="matrix" values="0 0 0 0 0 0 0 0 0 0 0 0 0 0 0 0 0 0 127 0" result="hardAlpha"/>
            <feOffset dy="1"/>
            <feGaussianBlur stdDeviation="1.5"/>
            <feComposite in2="hardAlpha" operator="out"/>
            <feColorMatrix type="matrix" values="0 0 0 0 0.424688 0 0 0 0 0.526927 0 0 0 0 0.629167 0 0 0 0.1 0"/>
            <feBlend mode="normal" in2="BackgroundImageFix" result="effect1_dropShadow_1_445"/>
            <feBlend mode="normal" in="SourceGraphic" in2="effect1_dropShadow_1_445" result="shape"/>
        </filter>
    </defs>
</svg>
