<svg width="142" height="36" viewBox="0 0 142 36" fill="none" xmlns="http://www.w3.org/2000/svg">
<path fill-rule="evenodd" clip-rule="evenodd" d="M34.405 0.661945H48.4218C58.2336 0.661945 63.6365 5.93209 63.6365 13.5445C63.6365 21.1315 58.0297 26.5544 48.0396 26.5544H42.4583V35.4908H34.405V0.661945ZM66.5928 18C66.5928 7.23054 75.1812 0 84.8657 0C94.5499 0 103.138 6.92502 103.138 18C103.138 29.0749 94.7539 36 84.8657 36C74.9519 35.9746 66.5928 28.744 66.5928 18ZM84.8657 28.5403C78.7237 28.5403 74.8244 23.7539 74.8244 18C74.8244 12.2461 78.6727 7.4597 84.8657 7.4597C91.0585 7.4597 94.8812 12.1951 94.8812 18C94.9068 23.8048 91.0075 28.5403 84.8657 28.5403ZM116.646 15.9632L129.235 0.6874H138.69L124.572 17.1853L139.2 35.4908H128.981L116.646 19.6294V35.4908H108.592V0.661945H116.646V15.9632ZM8.05332 15.9632L20.643 0.6874H30.098L15.9792 17.1853L30.6077 35.4908H20.3881L8.05332 19.6294V35.4908H0V0.661945H8.05332V15.9632ZM42.4583 7.7143V19.6294H47.275C53.0602 19.6294 55.4047 17.2871 55.4047 13.5445C55.4047 10.5658 53.4934 7.7143 47.7337 7.7143H42.4583Z" fill="#07AF5E"/>
</svg>
