<svg width="74" height="74" viewBox="0 0 74 74" fill="none" xmlns="http://www.w3.org/2000/svg">
<path d="M37 74C57.4345 74 74 57.4345 74 37C74 16.5655 57.4345 0 37 0C16.5655 0 0 16.5655 0 37C0 57.4345 16.5655 74 37 74Z" fill="#E32213"/>
<path d="M30.2612 28.2002C30.5772 27.4746 30.7353 26.5193 30.7353 25.6203C30.7353 24.58 30.5934 23.6843 30.3096 22.9329C30.0322 22.1816 29.6516 21.5491 29.1678 21.0354C28.6905 20.5153 28.1292 20.0978 27.4843 19.7832C26.8456 19.4686 26.1651 19.2278 25.4427 19.0608C24.7267 18.8874 23.9881 18.775 23.2269 18.7237C22.7682 18.6888 22.573 18.6645 22.1308 18.6507L22.6878 20.2671L22.8553 20.2881C23.4229 20.3716 24.6847 20.6341 25.2008 20.8139C25.7168 20.9936 26.1973 21.2248 26.6424 21.5074C27.0876 21.7835 27.4746 22.1142 27.8035 22.4994C28.1389 22.8848 28.4034 23.3311 28.5969 23.8383C28.7904 24.3392 28.8969 24.9011 28.9162 25.524C28.9356 26.134 28.8453 26.8452 28.6453 27.3718C28.4518 27.892 28.1776 28.3671 27.8229 28.7974C27.4681 29.2212 27.0456 29.6 26.5553 29.934C26.0651 30.2615 25.5297 30.5376 24.9492 30.7624C24.3751 30.9871 23.7687 31.1573 23.1301 31.2729C22.4916 31.3885 21.8497 31.4463 21.2046 31.4463H20.866C20.7563 31.4463 20.6467 31.4398 20.537 31.427L20.5371 20.389V18.6507C20.388 18.655 20.2132 18.6442 20.0576 18.6507C19.5932 18.6699 19.0034 18.6988 18.5003 18.7374L18.5 33.1993C18.7258 33.2378 19.0953 33.2635 19.3469 33.2764C19.5985 33.2892 19.8532 33.2956 20.1113 33.2956C20.8724 33.2956 21.6626 33.2346 22.4819 33.1126C23.301 32.9906 24.1042 32.8011 24.8912 32.5443C25.6781 32.2874 26.4264 31.96 27.1359 31.5619C27.8455 31.1573 28.4647 30.6756 28.9936 30.117C29.529 29.5583 29.9516 28.9194 30.2612 28.2002Z" fill="white"/>
<path d="M20.5463 48.356L29.091 48.205V40.7424L31.147 40.706L31.1467 55.3163L29.0913 55.3513V49.9973L20.5461 50.1465L20.5463 55.3159L18.5 55.3522V40.749L20.5465 40.7051L20.5463 48.356Z" fill="white"/>
<path d="M52.0499 48.761L55.5006 55.3159L53.4411 55.3534L49.9882 49.3054C49.1044 49.436 48.335 49.4324 47.4433 49.3813L47.9832 47.7671C47.9832 47.7671 49.2776 47.7084 49.9758 47.5857C50.6741 47.4628 51.7374 47.2956 52.4724 46.7232C53.2552 46.1977 53.1941 45.0718 53.1941 45.0718C53.1941 45.0718 53.2023 44.5888 52.9652 44.204C52.7346 43.8194 52.4078 43.4956 51.9849 43.2327C51.5619 42.9635 51.0557 42.7583 50.4662 42.6172C49.8831 42.4762 49.2423 42.4057 48.5439 42.4057C48.2492 42.4057 47.9448 42.4185 47.6308 42.4442C47.3617 42.4634 47.0638 42.4923 46.737 42.5307C46.4149 42.5623 46.1956 42.6126 45.8949 42.6816L45.8816 55.3193L43.8535 55.355V41.1266C44.4046 40.9599 44.9557 40.8349 45.5067 40.7516C46.0578 40.6682 46.5607 40.6041 47.0157 40.5592C47.5412 40.5143 48.0506 40.4855 48.5439 40.4727C48.9604 40.4727 49.4218 40.5015 49.928 40.5592C50.4342 40.617 50.9404 40.7195 51.4466 40.8669C51.9593 41.0144 52.4526 41.2196 52.9268 41.4825C53.4074 41.7453 53.8271 42.0819 54.1859 42.4923C54.5511 42.8962 54.7492 43.3651 54.9113 43.9973C55.1011 44.7379 55.0525 45.4636 54.9113 45.9207C54.3969 47.5857 53.2591 48.3366 52.0499 48.761Z" fill="white"/>
<path d="M51.9725 20.7691C51.3636 21.9336 50.7878 23.4748 50.2452 24.6514C49.7053 25.8161 49.1892 26.9958 48.697 28.1907L48.0685 29.7967L47.4145 31.5291L46.965 32.8839H44.8535C45.7036 30.5913 46.5554 28.4451 47.5863 26.2252C48.6233 24.0054 49.7266 21.3582 50.8963 19.1809L52.8535 19.1191L51.9725 20.7691Z" fill="white"/>
</svg>
