<svg width="103" height="36" viewBox="0 0 103 36" fill="none" xmlns="http://www.w3.org/2000/svg">
<g clip-path="url(#clip0_1_856)">
<path d="M57.6219 0.733398H64.7309V13.7603C65.1265 13.6281 65.3931 13.6223 65.5307 13.4815C69.2802 9.67774 76.3233 10.5345 79.8577 15.6636C83.3807 20.7755 83.0711 27.8079 78.992 32.4454C75.5206 36.39 69.4607 37.011 65.8403 33.8571C65.4992 33.5609 65.1093 33.3165 64.5991 32.9457C64.536 33.7564 64.4873 34.3573 64.4328 35.0761H57.6276V0.733398H57.6219ZM69.5897 28.6302C72.5136 28.6331 74.8212 26.3934 74.8556 23.5154C74.8929 20.5972 72.4391 18.2167 69.4177 18.2368C66.6888 18.2541 64.4242 20.6461 64.4443 23.4867C64.4672 26.5026 66.5942 28.6273 69.5897 28.6302Z" fill="white"/>
<path d="M8.0112 35.1417H0.810425V0.758789H8.0026V14.125C8.52432 13.7685 8.84537 13.6103 9.09189 13.3717C11.7091 10.856 14.825 10.5714 18.0155 11.7358C20.9909 12.8197 22.8341 15.1974 22.9431 18.3743C23.1323 23.9146 22.9947 29.4635 22.9947 35.1015H15.8914C15.8656 34.5466 15.8254 34.0348 15.8254 33.5259C15.8197 29.7884 15.8369 26.0479 15.8168 22.3103C15.8025 19.5042 14.4122 17.9402 11.9928 17.9431C9.6222 17.9459 8.0628 19.5934 8.0284 22.2701C7.98254 26.0076 8.01407 29.7452 8.0112 33.4857C8.0112 34.0003 8.0112 34.515 8.0112 35.1417Z" fill="white"/>
<path d="M51.8523 35.1537H45.1474C45.0987 34.4349 45.0528 33.7391 44.9926 32.8737C44.6515 33.0548 44.3218 33.1325 44.1413 33.3395C41.2575 36.6774 35.0801 36.7953 30.978 32.9111C25.3481 27.5778 26.2368 17.0206 32.7123 12.754C36.3901 10.3303 40.7587 10.6322 44.0696 13.5245C44.2731 13.7028 44.5196 13.8321 44.9439 14.1139C45.0184 13.2658 45.0786 12.5901 45.1445 11.834H51.8494V35.1537H51.8523ZM34.6759 23.5125C34.6874 26.5572 36.8373 28.6732 39.9503 28.6962C42.7882 28.7164 45.0729 26.3732 45.0557 23.4636C45.0356 20.4621 42.665 18.1936 39.5949 18.2396C36.8287 18.2799 34.6673 20.6001 34.6759 23.5125Z" fill="white"/>
<path d="M86.7156 11.8493H93.429C93.4634 12.6572 93.495 13.3702 93.5466 14.4742C95.9516 11.6854 98.6949 10.4635 102.077 11.4209V18.5223C100.61 18.3757 99.3456 18.1744 98.0786 18.1399C95.4098 18.0623 93.7931 19.681 93.7816 22.3778C93.7673 26.0665 93.7816 29.7581 93.7816 33.4468C93.7816 33.9643 93.7816 34.4847 93.7816 35.1H86.7127V11.8493H86.7156Z" fill="white"/>
</g>
<defs>
<clipPath id="clip0_1_856">
<rect width="101.267" height="35.1333" fill="white" transform="translate(0.810425 0.733398)"/>
</clipPath>
</defs>
</svg>
