<svg width="84" height="28" viewBox="0 0 84 28" fill="none" xmlns="http://www.w3.org/2000/svg">
<g clip-path="url(#clip0_1_869)">
<path d="M0.278564 0V6.39745H3.95769V21.4137H0.278564V27.4557H20.0538V21.4137H16.2827V6.39745H20.0538V0H0.278564Z" fill="white"/>
<path d="M21.0652 6.48706V12.4402H23.8246V21.4144H21.0652V27.3676H36.5175V21.4144H33.5743V16.2609C33.5743 14.0396 35.3218 12.4402 37.5293 12.4402C39.2769 12.4402 40.7485 13.3288 40.7485 15.1947V21.4144H37.8972V27.3676H52.9816V21.5033V21.4144H50.4982V13.5065C50.4982 8.44184 46.6351 6.57591 41.9442 6.57591C38.633 6.57591 36.0577 7.46445 33.8502 9.95235C33.6662 10.1301 33.4823 10.3966 33.2983 10.4855V6.48706H21.0652Z" fill="white"/>
<path d="M65.6742 6.57568C58.7759 6.57568 52.0615 9.86326 51.9695 17.2381C51.9695 18.8375 52.2454 20.1703 52.7973 21.4142V21.5031C54.8208 25.9457 60.1555 27.9005 65.5822 27.9005C69.9972 27.9005 76.0677 26.9231 77.4474 20.348L77.5394 19.6371H69.5373H69.2614C69.2614 21.8585 67.6058 22.9247 65.7662 22.9247C62.1791 22.9247 61.9031 19.9926 61.9031 17.2381V17.1493C61.9031 14.3948 62.1791 11.4626 65.7662 11.4626C68.6175 11.4626 69.0774 13.8617 69.1694 16.083L77.5394 15.1945C76.6196 7.10881 68.2496 6.57568 66.1341 6.57568C65.8582 6.57568 65.6742 6.57568 65.6742 6.57568Z" fill="white"/>
<path d="M76.9886 24.08C76.9886 25.946 78.5522 27.4565 80.4838 27.4565C82.4153 27.4565 83.9789 25.946 83.9789 24.08C83.9789 22.2141 82.4153 20.7036 80.4838 20.7036C78.5522 20.7036 76.9886 22.2141 76.9886 24.08Z" fill="white"/>
</g>
<defs>
<clipPath id="clip0_1_869">
<rect width="83.7" height="27.9" fill="white" transform="translate(0.278564)"/>
</clipPath>
</defs>
</svg>
