<svg width="120" height="31" viewBox="0 0 120 31" fill="none" xmlns="http://www.w3.org/2000/svg">
<path d="M10.6505 0.519531C8.42776 0.519531 5.79174 2.64274 3.61905 6.20837C1.35245 9.90457 0 14.4774 0 18.4503C0 24.2666 3.2872 30.1295 10.6505 30.1295C18.0139 30.1295 21.3011 24.2666 21.3011 18.4503C21.3011 14.4774 19.9486 9.90457 17.6945 6.21148C15.4999 2.64274 12.8671 0.519531 10.6505 0.519531Z" fill="white"/>
<path d="M68.1543 9.24295H75.6084V28.5415H83.5948V9.24295H91.0489V2.10547H68.1543V9.24295Z" fill="white"/>
<path d="M108.089 9.24295H119.804V2.10547H108.089C97.326 2.10547 91.5781 7.41816 91.5781 15.3235C91.5781 23.2288 97.3229 28.5415 108.089 28.5415H119.804V21.404H108.089C103.108 21.404 99.8337 19.6352 99.8337 15.3235C99.8337 11.0118 103.108 9.24295 108.089 9.24295Z" fill="white"/>
<path d="M51.9105 2.10547L47.6528 17.885L43.3951 2.10547H29.2852V28.5415H37.2715V7.03891L43.0758 28.5415H52.233L58.0404 7.02647V28.5415H66.0267V2.10547H51.9105Z" fill="white"/>
</svg>
