<svg width="104" height="32" viewBox="0 0 104 32" fill="none" xmlns="http://www.w3.org/2000/svg">
<path d="M0.978516 31.2894V0.462045C5.44587 0.470573 9.91528 0.413008 14.3826 0.517478C16.2389 0.560119 18.1362 0.74774 19.9268 1.22105C23.4261 2.14636 25.8484 4.31466 26.4084 8.22057C26.4822 8.7408 26.5233 9.26741 26.5786 9.78976C28.8513 4.25283 32.8469 1.18694 38.5121 0.568648C44.0276 -0.0347224 48.897 1.39588 52.589 6.12903C52.7264 4.49588 52.7613 2.99492 52.7141 1.49822C52.6875 0.656062 53.0054 0.395952 53.791 0.410876C55.8708 0.449253 57.9527 0.387423 60.0325 0.430064C63.2672 0.49829 66.5203 0.41514 69.7262 0.777588C73.5249 1.20826 76.6139 2.96507 77.9409 7.02236C77.9532 7.06287 78.0455 7.07566 78.2014 7.14815C78.2014 5.21225 78.2383 3.31899 78.185 1.42786C78.1625 0.615553 78.4496 0.39382 79.188 0.410876C80.8576 0.449253 82.5314 0.466309 84.201 0.40448C85.0768 0.372499 85.2737 0.711495 85.2696 1.56218C85.2368 7.61294 85.245 13.6658 85.2553 19.7166C85.2614 23.0959 87.0192 25.1128 90.1821 25.407C93.671 25.7311 95.8883 24.0979 96.4585 20.7357C96.5816 20.0151 96.6144 19.2689 96.6165 18.5354C96.6288 12.8706 96.6411 7.20572 96.6062 1.54086C96.6001 0.658194 96.8564 0.372499 97.7036 0.40448C99.2358 0.462045 100.774 0.453517 102.306 0.406612C103.073 0.383159 103.285 0.66459 103.281 1.44492C103.252 7.95407 103.289 14.4632 103.256 20.9724C103.231 25.7524 100.68 29.2703 96.276 30.6092C93.0413 31.5921 89.737 31.607 86.4675 30.8928C80.911 29.6818 78.2035 26.1426 78.2014 20.3072C78.2014 17.8788 78.2035 15.4525 78.1973 13.0241C78.1973 12.7469 78.144 12.4676 78.1173 12.1905C77.0261 15.5975 74.7473 17.5462 71.3958 18.416C74.0725 22.759 76.6549 26.9464 79.3521 31.3235C76.5769 31.3235 74.0582 31.3533 71.5414 31.2872C71.2112 31.2787 70.7969 30.8501 70.5876 30.509C68.4811 27.0999 66.4156 23.6651 64.3214 20.2475C64.1327 19.9383 63.8415 19.4885 63.5748 19.4714C62.3688 19.3883 61.1545 19.4352 60.0387 19.4352C60.0387 21.9147 59.9013 24.2344 60.0777 26.5306C60.2479 28.7138 59.1875 30.7414 57.2902 31.1891C55.1262 31.6987 53.0936 30.5517 52.5623 28.4239C52.3818 27.7032 52.4495 26.9144 52.3921 25.9614C47.2417 31.219 41.1827 32.7924 34.537 30.1316C27.4032 27.2747 25.5674 21.0491 25.8649 13.6893C24.5111 16.2541 22.4354 17.7082 19.6561 18.3691C22.3349 22.7164 24.907 26.8931 27.6001 31.268C24.9788 31.268 22.663 31.2403 20.3494 31.2851C19.6376 31.2979 19.2397 31.0164 18.8808 30.4173C17.1845 27.5732 15.2851 24.8399 13.7899 21.8891C12.7233 19.7848 11.3593 19.0663 9.18303 19.352C8.36873 19.4586 8.04465 19.6356 8.06926 20.5118C8.12054 22.2687 8.10619 24.0297 8.07747 25.7887C8.04875 27.5668 7.96876 29.3471 7.91133 31.1252C6.21504 31.1721 4.51876 31.2233 2.82453 31.2659C2.21124 31.2808 1.59796 31.283 0.982618 31.2915L0.978516 31.2894ZM48.1627 10.2375C47.295 9.43158 46.5443 8.60647 45.6746 7.95194C41.8472 5.07154 35.1975 5.72608 33.5566 11.9261C32.8612 14.5506 32.7936 17.2008 33.493 19.8338C34.0181 21.8103 35.0621 23.4455 36.904 24.3538C39.7059 25.7354 42.4564 25.4262 45.1085 23.8677C45.3465 23.727 45.6357 23.4242 45.65 23.1812C45.7075 22.0768 45.6746 20.9681 45.6746 19.7997C43.7958 19.7997 42.0934 19.7656 40.3909 19.8147C39.6095 19.8381 39.2649 19.6377 39.3244 18.7593C39.3941 17.7082 39.39 16.6464 39.3244 15.5953C39.271 14.7191 39.5561 14.4462 40.4135 14.4568C44.165 14.4995 47.9165 14.4526 51.668 14.4931C52.4762 14.5016 52.751 14.233 52.7346 13.4164C52.6977 11.6937 52.7244 9.96885 52.7244 8.24403C52.7244 7.62786 52.7244 7.01383 52.7244 6.39767L52.4352 6.29107C51.0035 7.61294 49.5697 8.93481 48.1606 10.2354L48.1627 10.2375ZM12.0074 13.8492V13.8364C13.0289 13.8364 14.0545 13.8833 15.0739 13.8279C17.5537 13.6914 19.0182 12.2438 19.0674 9.94753C19.1187 7.60868 17.9783 6.31452 15.4144 6.09918C13.2832 5.92009 11.1336 5.9606 8.99227 5.88598C8.34412 5.86253 8.06926 6.12477 8.07747 6.80916C8.10003 8.88151 8.10003 10.956 8.07747 13.0283C8.07132 13.685 8.34822 13.879 8.94305 13.8598C9.96451 13.8279 10.986 13.8513 12.0095 13.8513L12.0074 13.8492ZM59.8705 13.7916C62.3113 13.7916 64.5881 13.8108 66.8649 13.7767C67.3284 13.7703 67.8002 13.5997 68.2473 13.4441C70.04 12.8237 70.7148 11.6468 70.6369 9.32711C70.5835 7.74513 69.759 6.54905 68.0217 6.33584C65.5029 6.02883 62.9431 6.04375 60.4017 5.967C60.2315 5.96273 59.8992 6.34011 59.8951 6.54478C59.8582 8.92415 59.8726 11.3035 59.8726 13.7916H59.8705Z" fill="white"/>
</svg>
