<svg width="134" height="34" viewBox="0 0 134 34" fill="none" xmlns="http://www.w3.org/2000/svg">
<path d="M12.936 3.16939H15.8706C17.6577 2.91415 19.4828 3.13856 21.1476 3.81824C23.2363 5.03648 24.7512 6.99771 25.3693 9.28357C25.8069 10.4814 25.8069 10.4814 26.8623 10.0572H27.6861V0.573984H0.065127V2.24602H1.19777C1.68996 2.24272 2.17667 2.34636 2.62213 2.54933C3.06759 2.75231 3.46048 3.04946 3.77194 3.41895C4.82736 5.06603 5.00755 6.91277 5.00755 16.5208C5.00755 26.7277 4.77587 29.2233 3.77194 30.496C3.5241 30.8232 3.20322 31.0919 2.83326 31.2821C2.4633 31.4722 2.05381 31.5789 1.63538 31.5941C0.0651271 31.8686 0.065127 31.8436 0.065127 32.5174C-0.021709 32.7428 -0.021709 32.9909 0.065127 33.2162H17.4923C17.6076 32.9958 17.6677 32.7521 17.6677 32.505C17.6677 32.2578 17.6076 32.0141 17.4923 31.7937C17.0702 31.6799 16.64 31.5965 16.2052 31.5442C15.7349 31.4899 15.2699 31.3981 14.8152 31.2696C14.1639 30.8087 13.6481 30.191 13.3185 29.4776C12.9889 28.7642 12.8571 27.9798 12.936 27.2018C12.6786 25.5548 12.5499 22.5351 12.5499 20.0395V18.068H13.5796C14.8624 18.03 16.1445 18.1643 17.3893 18.4673C17.9857 18.8246 18.4933 19.3051 18.876 19.8745C19.2587 20.444 19.507 21.0883 19.6031 21.7615L19.8348 22.5351H21.4051V11.4797H19.9635L19.7319 12.5528C19.6344 13.2412 19.3717 13.8979 18.9648 14.47C18.558 15.0422 18.0184 15.5138 17.3893 15.847C16.7802 16.0227 16.1384 16.0653 15.5102 15.9717H12.5499V13.2765C12.5499 10.4814 12.7043 4.59187 12.8073 3.66851L12.936 3.16939ZM133.408 22.9594C132.191 21.0607 130.293 19.6653 128.079 19.0413C126.382 18.527 124.813 17.6772 123.471 16.5457C123.169 16.2626 122.944 15.9122 122.813 15.5251C122.683 15.1379 122.653 14.7258 122.725 14.3246C122.727 13.5378 123.051 12.7838 123.626 12.2284C124.015 11.8327 124.509 11.5471 125.053 11.402C125.597 11.257 126.171 11.258 126.715 11.4048C127.84 11.7157 128.858 12.316 129.66 13.1419C130.462 13.9679 131.019 14.9888 131.271 16.0965C131.683 17.2195 131.734 17.2195 132.481 16.92L132.944 16.7454V10.5314L132.61 10.3816C130.075 9.51873 127.387 9.16218 124.707 9.33348C122.399 9.39017 120.196 10.2801 118.529 11.8291C117.773 12.5151 117.181 13.353 116.794 14.2841C116.407 15.2152 116.235 16.2171 116.289 17.2195C116.304 18.7521 116.931 20.2194 118.04 21.3123C119.265 22.4802 120.768 23.3374 122.416 23.8079C126.406 25.3302 127.564 26.3034 127.564 28.0753C127.581 28.8225 127.336 29.5531 126.868 30.1472C126.4 30.7413 125.738 31.1635 124.99 31.3445C124.091 31.536 123.16 31.536 122.261 31.3445C121.085 30.9017 120.034 30.1929 119.197 29.277C118.359 28.3611 117.76 27.2647 117.448 26.0788L117.113 25.2803H116.65C116.428 25.2962 116.211 25.3468 116.006 25.43H115.749V32.5174H116.186C117.925 33.0783 119.72 33.463 121.541 33.6654H124.115C125.231 33.7448 126.353 33.6436 127.435 33.3659C128.809 33.1202 130.093 32.5302 131.159 31.6546C132.224 30.779 133.035 29.6483 133.511 28.3748C133.818 27.6635 133.975 26.8999 133.974 26.1287C134.075 25.0424 133.88 23.9493 133.408 22.9594ZM109.159 10.0572C107.616 9.42933 105.954 9.12476 104.282 9.16347C102.609 9.20218 100.964 9.58329 99.4542 10.2818C98.0349 10.9548 96.777 11.9089 95.7617 13.0824C94.7463 14.2559 93.996 15.6227 93.5593 17.0947C93.0025 18.7005 92.7666 20.3945 92.8643 22.0859C92.8458 23.0062 92.9234 23.9259 93.0959 24.831C93.5116 27.0566 94.6199 29.1056 96.2719 30.7026C97.9239 32.2997 100.04 33.3684 102.337 33.7652C103.833 33.9479 105.346 33.9479 106.842 33.7652C108.394 33.5 109.88 32.9494 111.218 32.1431C112.325 31.5413 113.263 30.6842 113.947 29.6475C113.903 29.4849 113.826 29.3325 113.719 29.1996C113.613 29.0666 113.48 28.9558 113.329 28.8739C113.035 28.977 112.758 29.1199 112.505 29.2981C111.225 30.1162 109.713 30.5263 108.181 30.4711C107.164 30.5377 106.144 30.3842 105.196 30.0216C104.247 29.6591 103.394 29.0965 102.698 28.3748C102.159 27.8897 101.714 27.3149 101.385 26.6778C100.585 25.1263 100.154 23.4208 100.123 21.6866V20.7133H114.384V20.2142C114.416 19.7156 114.416 19.2155 114.384 18.7169C114.379 16.9547 113.893 15.2253 112.975 13.7044C112.057 12.1834 110.741 10.925 109.159 10.0572ZM101.977 18.6919H100.175V17.2195C100.767 13.4512 102.234 11.2052 104.036 11.2052C105.838 11.2052 106.61 13.4262 106.945 17.494V18.642H105.401L101.977 18.6919ZM64.9602 9.23366C64.0707 9.20021 63.1865 9.38023 62.386 9.75773C60.6462 10.5768 59.2409 11.9392 58.396 13.6259L58.0614 14.2248V9.23366H57.9327C57.6238 9.23366 48.0993 11.0804 47.7904 11.2052C47.4815 11.3299 47.5845 11.3549 47.5845 11.8041C47.5845 12.2533 47.5845 12.3282 47.7904 12.3531L48.7943 12.5528C49.0755 12.5595 49.3514 12.6281 49.6012 12.7535C49.8509 12.8789 50.068 13.0577 50.2359 13.2765C50.8794 14.1 51.0081 15.5475 51.0081 21.7116C51.1353 24.4866 51.0147 27.267 50.6477 30.0219C50.5614 30.4372 50.3441 30.8164 50.0259 31.107C49.7078 31.3975 49.3044 31.5852 48.8716 31.644L47.9963 31.8187H47.6617V32.5174C47.5683 32.7502 47.5683 33.0084 47.6617 33.2412H62.0514V32.5174C62.1013 32.2786 62.1013 32.0325 62.0514 31.7937C61.185 31.761 60.3234 31.6524 59.4772 31.4693C59.0164 31.2356 58.6394 30.8721 58.3958 30.4266C58.1523 29.9811 58.0536 29.4746 58.1129 28.9737C57.9069 27.5263 57.804 23.2838 57.8554 20.0395C57.9069 16.7953 57.8554 16.5956 58.1386 16.371C59 15.7307 60.0659 15.4039 61.1504 15.4477C62.1726 15.4693 63.1763 15.7168 64.085 16.1714C64.3999 16.341 64.7379 16.467 65.0889 16.5457C65.0889 16.5457 67.6631 10.5064 67.6631 10.2319C67.3336 9.86078 66.914 9.57516 66.442 9.40086C65.9701 9.22657 65.4608 9.1691 64.9602 9.23366ZM47.6102 19.7151C47.5204 17.9318 46.9922 16.1951 46.0698 14.6497C45.1474 13.1043 43.8575 11.795 42.3074 10.8308C40.4653 9.8674 38.4159 9.33619 36.3236 9.27984C34.2314 9.2235 32.1547 9.6436 30.2602 10.5064C27.5818 11.8757 25.5595 14.2033 24.6228 16.9949C23.6553 20.1204 23.6553 23.4525 24.6228 26.578C25.13 28.2861 26.0779 29.8407 27.3772 31.095C28.9953 32.6256 31.0817 33.6064 33.3235 33.89C34.7625 34.0067 36.2091 34.0067 37.6481 33.89C38.1777 33.8119 38.702 33.7036 39.2184 33.5656C41.3137 32.9974 43.1987 31.8624 44.6529 30.2935C46.1072 28.7245 47.0704 26.7866 47.43 24.7063C47.687 23.0547 47.7475 21.38 47.6102 19.7151ZM36.9016 32.193C34.3274 32.9417 32.3968 30.521 31.7533 25.43C31.5169 22.7646 31.5169 20.0845 31.7533 17.4192C32.2681 13.3264 33.5809 11.2551 35.6145 11.2551C36.0248 11.2304 36.4352 11.3014 36.8114 11.462C37.1876 11.6227 37.5187 11.8683 37.7768 12.1784C39.5015 13.8505 40.351 17.1696 40.351 22.1608C40.5652 24.9855 40.1072 27.8202 39.0125 30.4461C38.529 31.212 37.7811 31.7868 36.9016 32.0682V32.193ZM83.2368 9.73277C82.5105 9.64216 81.7751 9.64216 81.0488 9.73277C79.6545 9.73162 78.2762 10.021 77.0073 10.5813L76.2093 10.9057V5.49028C76.3488 3.66268 76.3488 1.8276 76.2093 0C75.9004 0 66.0671 1.82178 65.9126 1.89664C65.8367 2.08089 65.8367 2.28638 65.9126 2.47063C65.9126 2.9947 65.9126 2.96974 67.071 3.2193C67.3962 3.29001 67.7086 3.40779 67.9977 3.56868C68.5002 4.02677 68.8346 4.6314 68.9501 5.29063C69.2432 7.18983 69.3381 9.11283 69.2333 11.0305V32.9417L69.9283 33.0914C70.958 33.316 73.8668 33.7902 74.8193 33.89C76.7212 34.0367 78.6321 34.0367 80.534 33.89C82.645 33.681 84.6571 32.9175 86.3536 31.6817C88.0501 30.446 89.3667 28.7849 90.1614 26.8774C90.6352 25.6532 90.9633 24.3805 91.1396 23.0841C91.2928 21.3281 91.2323 19.5608 90.9594 17.8185C90.6832 15.8655 89.7941 14.0421 88.4126 12.5956C87.0311 11.1492 85.2242 10.1497 83.2368 9.73277ZM76.4925 31.7688C76.4925 31.4443 76.2351 20.5137 76.2866 16.1464V12.7275L77.0331 12.5528C77.5368 12.4828 78.0482 12.4828 78.5518 12.5528C79.1089 12.4979 79.6692 12.6205 80.1478 12.9022C81.1092 13.5454 81.9074 14.3916 82.4826 15.3772C83.0578 16.3627 83.3949 17.462 83.4685 18.5921C83.656 20.4093 83.656 22.2402 83.4685 24.0574C83.3144 26.6986 82.2647 29.2165 80.4825 31.2197C79.9766 31.6855 79.3413 31.9978 78.6548 32.1181C78.1353 32.2057 77.6041 32.2057 77.0846 32.1181C76.5955 32.1181 76.5955 31.9684 76.5955 31.7688H76.4925Z" fill="white"/>
</svg>
