<svg width="110" height="38" viewBox="0 0 110 38" fill="none" xmlns="http://www.w3.org/2000/svg">
<g clip-path="url(#clip0_1_167)">
<path d="M61.7109 0H69.4331V14.0899C69.8628 13.9468 70.1524 13.9406 70.3018 13.7882C74.3746 9.67414 82.0251 10.6008 85.8644 16.1484C89.6912 21.6774 89.3549 29.2836 84.9241 34.2995C81.1533 38.566 74.5708 39.2376 70.6381 35.8264C70.2676 35.5061 69.8441 35.2417 69.2898 34.8406C69.2213 35.7175 69.1684 36.3674 69.1092 37.1448H61.7172V0H61.7109ZM74.7109 30.173C77.8869 30.1761 80.3935 27.7537 80.4309 24.6409C80.4714 21.4846 77.806 18.9098 74.5241 18.9316C71.5598 18.9502 69.0999 21.5375 69.1217 24.6098C69.1466 27.8719 71.457 30.1699 74.7109 30.173Z" fill="white"/>
<path d="M7.82178 37.2157H0V0.0273438H7.81244V14.4841C8.37914 14.0985 8.72789 13.9275 8.99567 13.6694C11.8385 10.9485 15.2232 10.6406 18.6888 11.9C21.9209 13.0724 23.9231 15.644 24.0414 19.0802C24.2469 25.0725 24.0974 31.0742 24.0974 37.1722H16.3815C16.3535 36.572 16.3099 36.0185 16.3099 35.4681C16.3037 31.4255 16.3224 27.3799 16.3006 23.3373C16.285 20.3023 14.7748 18.6106 12.1468 18.6138C9.57172 18.6169 7.87783 20.3987 7.84046 23.2938C7.79064 27.3363 7.82489 31.3789 7.82178 35.4246C7.82178 35.9812 7.82178 36.5378 7.82178 37.2157Z" fill="white"/>
<path d="M55.4437 37.2288H48.1606C48.1077 36.4514 48.0578 35.6989 47.9925 34.7629C47.6219 34.9588 47.2638 35.0427 47.0677 35.2666C43.9352 38.8769 37.225 39.0044 32.7692 34.8033C26.6538 29.0349 27.6191 17.6162 34.6531 13.0015C38.648 10.3801 43.3934 10.7066 46.9898 13.8349C47.2109 14.0277 47.4787 14.1676 47.9395 14.4724C48.0205 13.555 48.0859 12.8242 48.1575 12.0064H55.4406V37.2288H55.4437ZM36.786 24.6378C36.7985 27.931 39.1338 30.2197 42.5153 30.2445C45.598 30.2663 48.0796 27.7319 48.061 24.585C48.0392 21.3385 45.4641 18.885 42.1292 18.9347C39.1244 18.9783 36.7767 21.4877 36.786 24.6378Z" fill="white"/>
<path d="M93.3137 12.0228H100.606C100.643 12.8966 100.678 13.6678 100.734 14.8619C103.346 11.8456 106.326 10.524 110 11.5595V19.2403C108.406 19.0817 107.033 18.8641 105.657 18.8268C102.758 18.7428 101.002 20.4935 100.989 23.4104C100.974 27.4001 100.989 31.3929 100.989 35.3826C100.989 35.9423 100.989 36.5052 100.989 37.1706H93.3105V12.0228H93.3137Z" fill="white"/>
</g>
<defs>
<clipPath id="clip0_1_167">
<rect width="110" height="38" fill="white"/>
</clipPath>
</defs>
</svg>
