<svg width="91" height="32" viewBox="0 0 91 32" fill="none" xmlns="http://www.w3.org/2000/svg">
<g clip-path="url(#clip0_1_142)">
<path d="M0 0V7.2H4V24.1H0V30.9H21.5V24.1H17.4V7.2H21.5V0H0Z" fill="white"/>
<path d="M22.5996 7.30078V14.0008H25.5996V24.1008H22.5996V30.8008H39.3996V24.1008H36.1996V18.3008C36.1996 15.8008 38.0996 14.0008 40.4996 14.0008C42.3996 14.0008 43.9996 15.0008 43.9996 17.1008V24.1008H40.8996V30.8008H57.2996V24.2008V24.1008H54.5996V15.2008C54.5996 9.50078 50.3996 7.40078 45.2996 7.40078C41.6996 7.40078 38.8996 8.40078 36.4996 11.2008C36.2996 11.4008 36.0996 11.7008 35.8996 11.8008V7.30078H22.5996Z" fill="white"/>
<path d="M71.0992 7.40039C63.5992 7.40039 56.2992 11.1004 56.1992 19.4004C56.1992 21.2004 56.4992 22.7004 57.0992 24.1004V24.2004C59.2992 29.2004 65.0992 31.4004 70.9992 31.4004C75.7992 31.4004 82.3992 30.3004 83.8992 22.9004L83.9992 22.1004H75.2992H74.9992C74.9992 24.6004 73.1992 25.8004 71.1992 25.8004C67.2992 25.8004 66.9992 22.5004 66.9992 19.4004V19.3004C66.9992 16.2004 67.2992 12.9004 71.1992 12.9004C74.2992 12.9004 74.7992 15.6004 74.8992 18.1004L83.9992 17.1004C82.9992 8.00039 73.8992 7.40039 71.5992 7.40039C71.2992 7.40039 71.0992 7.40039 71.0992 7.40039Z" fill="white"/>
<path d="M83.4004 27.1008C83.4004 29.2008 85.1004 30.9008 87.2004 30.9008C89.3004 30.9008 91.0004 29.2008 91.0004 27.1008C91.0004 25.0008 89.3004 23.3008 87.2004 23.3008C85.1004 23.3008 83.4004 25.0008 83.4004 27.1008Z" fill="white"/>
</g>
<defs>
<clipPath id="clip0_1_142">
<rect width="91" height="31.4" fill="white"/>
</clipPath>
</defs>
</svg>
