<svg width="115" height="31" viewBox="0 0 115 31" fill="none" xmlns="http://www.w3.org/2000/svg">
<path fill-rule="evenodd" clip-rule="evenodd" d="M0 0V28.661L28.661 0H0Z" fill="white"/>
<path fill-rule="evenodd" clip-rule="evenodd" d="M2.04688 30.7079H30.7079V2.04688L2.04688 30.7079Z" fill="white"/>
<path fill-rule="evenodd" clip-rule="evenodd" d="M46.8067 14.6884C50.1392 14.6884 51.9108 13.0565 51.9108 10.0074V9.83508C51.9108 6.5712 50.0546 5.28283 46.8067 5.28283H43.3477V14.6884H46.8067ZM36.5566 0H46.9754C54.3149 0 58.4911 3.30683 58.4911 9.79263V9.96392C58.4911 16.4492 54.0622 19.5418 47.1861 19.5418H43.3477V30.7082H36.5566V0Z" fill="white"/>
<path fill-rule="evenodd" clip-rule="evenodd" d="M72.011 25.4254C75.2806 25.4254 76.9362 23.9652 76.9362 21.1733V21.002C76.9362 18.253 75.2806 16.7498 71.8456 16.7498H68.0379V25.4254H72.011ZM72.2595 30.7082H61.4162V0H80.7022V5.41166H68.0796L68.0379 11.8535H72.4662C79.295 11.8535 83.3507 14.9032 83.3507 21.0444V21.2167C83.3507 27.2291 79.5847 30.7082 72.2595 30.7082Z" fill="white"/>
<path fill-rule="evenodd" clip-rule="evenodd" d="M88.2871 0.0428858H95.4177V13.2527L106.421 0H113.992L101.536 14.5393L114.608 30.7082H106.289L95.4177 16.9409V30.7082H88.2871V0.0428858Z" fill="white"/>
</svg>
