<svg width="191" height="25" viewBox="0 0 191 25" fill="none" xmlns="http://www.w3.org/2000/svg">
<path d="M20.6575 20.0285H12.8545L8.07556 12.0677L6.52281 13.6908V20.0285H0V0H6.52281V6.46424L12.1157 0H19.7659L12.5931 7.47017L20.6575 20.0285ZM29.3911 12.5982C29.3911 11.6824 29.1772 10.852 28.7489 10.1165C28.3208 9.38102 27.6599 9.01088 26.7571 9.01088C25.9518 9.01088 25.3423 9.38102 24.9327 10.1213C24.5231 10.8662 24.3184 11.692 24.3184 12.5982C24.3184 13.571 24.537 14.4916 24.9747 15.3505C25.4074 16.2141 26.0775 16.6458 26.9757 16.6458C27.8415 16.6458 28.4604 16.2282 28.8327 15.3884C29.2051 14.5486 29.3911 13.6185 29.3911 12.5982ZM33.9152 17.1107C32.3739 19.4069 29.7321 20.4814 26.9998 20.4814C24.184 20.4814 21.4701 19.416 19.8963 17.0285C18.4528 14.8383 18.2681 11.2671 19.4841 8.93029C20.4196 7.13184 22.1343 5.83191 24.1002 5.30373C26.2656 4.6999 28.6093 4.83042 30.6883 5.69199C32.6324 6.49456 34.0787 8.14585 34.7084 10.1088C35.3961 12.252 35.1507 15.2698 33.9152 17.1107ZM84.4639 11.129C84.2598 10.1752 83.9242 9.51401 83.4613 9.14552C82.9941 8.77159 82.4044 8.58734 81.6832 8.58734C80.9846 8.58734 80.4311 8.76632 80.0228 9.1292C79.6145 9.48698 79.306 10.1536 79.0928 11.129H84.4639ZM90.0438 13.9576H79.1492C79.1492 14.4085 79.2263 14.8042 79.3805 15.149C79.8493 16.1976 80.6975 16.9054 81.9118 16.9054C82.8037 16.9054 83.8322 16.5447 84.0239 15.5715H89.6037C89.392 16.9524 88.5147 18.1707 87.3855 18.9713C86.2463 19.7765 84.8472 20.2251 83.4659 20.3835C81.6943 20.6022 79.6447 20.5427 78.0041 19.8545C76.0954 19.0575 74.6701 17.584 73.894 15.6826C73.1811 13.8293 73.1715 11.7736 73.8624 9.90541C74.579 7.96737 76.0545 6.46852 77.9678 5.6737C80.2946 4.71127 83.5523 4.77653 85.8022 5.90359C87.7985 6.89997 89.1602 8.59855 89.7263 10.7424C90.0056 11.8209 90.1117 12.8542 90.0438 13.9576H90.0438ZM105.672 17.1386C104.6 19.1915 102.62 20.4738 100.234 20.4738C98.5203 20.4738 97.3929 19.9141 96.2346 18.7198V25H90.4222V5.48401H95.5688V7.66002C96.6852 5.42518 99.4482 4.61322 101.677 5.17699C104.106 5.7856 105.742 7.83718 106.324 10.143C106.868 12.2863 106.68 15.224 105.672 17.1386ZM100.938 12.3934C100.938 11.7765 100.734 11.1032 100.322 10.3779C99.91 9.65277 99.3127 9.29021 98.5349 9.29021C97.7618 9.29021 97.1645 9.6292 96.7479 10.312C96.3311 10.9901 96.1228 11.6823 96.1228 12.3934C96.1228 13.2647 96.2848 14.0793 96.609 14.8327C96.9375 15.5862 97.5766 15.9629 98.5349 15.9629C99.4702 15.9629 100.1 15.572 100.438 14.7904C100.744 14.0359 100.938 13.2109 100.938 12.3934ZM119.127 19.8611C116.868 20.6557 113.799 20.7777 111.55 19.8377C110.134 19.2459 108.879 18.2472 108.087 16.9193C107.312 15.6439 106.909 14.1745 106.909 12.6788C106.909 11.6826 107.118 10.7037 107.469 9.77423C108.281 7.68425 109.686 6.48501 111.714 5.65426C114.035 4.70337 117.482 4.73797 119.686 5.94282C121.787 7.09114 122.886 8.67255 123.175 11.0031H117.227C117.123 10.2863 116.921 9.84311 116.627 9.46506C115.794 8.39354 113.909 8.91711 113.307 9.97446C112.539 11.3237 112.412 13.3166 112.898 14.7955C113.218 15.7703 114.272 16.5967 115.296 16.5967C116.747 16.5967 117.048 15.6149 117.427 14.3944H123.175C123.115 16.8347 121.662 18.9689 119.127 19.8611ZM133.777 14.3093C133.777 14.0386 133.753 13.8162 133.704 13.647C133.305 13.8693 132.682 14.0628 131.836 14.2271C131.192 14.3454 130.506 14.4901 129.93 14.8073C129.113 15.2132 129.157 16.3772 129.871 16.8474C130.698 17.3471 132.085 17.3059 132.78 16.6058C133.441 15.9723 133.777 15.2086 133.777 14.3093H133.777ZM140.244 20.0285H134.294L134.068 18.488C133.634 19.0511 132.665 19.515 131.686 19.8935C131.209 20.0781 130.719 20.2241 130.217 20.3171C129.716 20.4056 129.182 20.4522 128.626 20.4522C127.623 20.4522 126.705 20.2754 125.873 19.9216C125.041 19.5677 124.413 19.0138 123.979 18.2691C123.59 17.4499 123.396 16.6213 123.396 15.7742C123.396 14.7035 123.892 13.8207 124.575 13.0293C124.964 12.5779 125.344 12.3243 126.031 12.0592C126.357 11.9336 126.679 11.8245 126.994 11.7334C127.307 11.643 127.603 11.557 127.885 11.5145L130.321 11.1468C131.355 10.9908 132.356 10.8561 132.798 10.7093C133.07 10.6188 133.391 10.3235 133.549 10.1373C133.707 9.95122 133.684 9.7556 133.684 9.55554C133.684 9.28082 133.553 9.05273 133.286 8.86668C133.019 8.68045 132.64 8.58734 132.147 8.58734C131.555 8.58734 130.819 8.67584 130.461 8.85267C130.104 9.0295 129.874 9.38332 129.765 9.90919H124.254C124.44 8.95501 124.406 8.39799 124.675 7.81526C124.944 7.23434 125.367 6.7355 125.946 6.32119C126.524 5.90705 127.319 5.58504 128.337 5.37162C128.829 5.26862 129.413 5.19677 130.077 5.14354C130.746 5.08981 131.488 5.05982 132.31 5.05982C134.313 5.05982 135.813 5.29911 136.813 5.77653C137.811 6.25329 138.462 6.63744 138.766 7.35382C139.068 8.06641 139.272 8.99225 139.367 10.128V17.8176C139.367 18.6089 139.66 19.1954 140.244 19.5771V20.0285ZM156.411 20.0285H150.672V14.5926H146.421V20.0285H140.737L140.732 5.71078L140.737 5.49192H146.421V10.3627H150.607V5.49192H156.411L156.405 19.768L156.411 20.0285ZM172.358 9.7762H167.416V20.0285H161.659V9.7762H156.676V5.49192H172.358V9.7762ZM191 15.3767C191 16.6536 190.394 17.7754 189.422 18.5755C188.142 19.6388 186.372 20.0285 184.748 20.0285H175.864V9.7762H172.546V5.49192H181.403V10.5939H184.433C186.12 10.5939 187.99 10.9253 189.327 12.0384C190.332 12.8751 191 14.0453 191 15.3767ZM185.278 15.3916C185.278 14.4731 184.772 14.0878 183.903 13.9832C183.726 13.9832 183.377 13.9684 182.859 13.9461C182.342 13.9229 181.649 13.9136 181.403 13.9136V16.7211L182.842 16.749C183.234 16.7573 183.558 16.7407 183.808 16.7211C184.692 16.6552 185.278 16.414 185.278 15.3916V15.3916ZM46.2244 20.0283H43.4349L40.3868 10.3176L40.8576 14.1238V20.0283H35.7676V5.40804H42.2955L44.8297 13.484L47.3638 5.40804H53.8919V20.0283H48.8017V14.1238L49.2725 10.3176L46.2244 20.0283ZM65.2859 20.0283H62.4963L59.4482 10.3176L59.919 14.1238V20.0283H54.8288V5.40804H61.3569L63.8911 13.484L66.4252 5.40804H72.9531V20.0283H67.8632V14.1238L68.3339 10.3176L65.2859 20.0283Z" fill="white"/>
</svg>
