<svg width="100" height="100" viewBox="0 0 100 100" fill="none" xmlns="http://www.w3.org/2000/svg">
<path d="M50 100C77.6142 100 100 77.6142 100 50C100 22.3858 77.6142 0 50 0C22.3858 0 0 22.3858 0 50C0 77.6142 22.3858 100 50 100Z" fill="#191C20"/>
<path d="M40.8935 38.1088C41.3206 37.1283 41.5342 35.8373 41.5342 34.6225C41.5342 33.2167 41.3424 32.0062 40.9589 30.9909C40.584 29.9756 40.0697 29.1209 39.416 28.4266C38.7709 27.7238 38.0125 27.1597 37.1409 26.7345C36.2779 26.3093 35.3582 25.9839 34.382 25.7583C33.4144 25.524 32.4163 25.3721 31.3877 25.3027C30.7679 25.2556 30.5041 25.2228 29.9065 25.2041L30.6592 27.3884L30.8855 27.4168C31.6526 27.5297 33.3577 27.8843 34.0551 28.1273C34.7524 28.3702 35.4018 28.6826 36.0033 29.0645C36.6048 29.4376 37.1278 29.8845 37.5723 30.4051C38.0256 30.9258 38.383 31.5289 38.6445 32.2144C38.906 32.8913 39.0499 33.6506 39.076 34.4923C39.1022 35.3167 38.9801 36.2778 38.7099 36.9894C38.4484 37.6923 38.0779 38.3344 37.5985 38.9158C37.1191 39.4886 36.5481 40.0005 35.8856 40.4518C35.2231 40.8943 34.4996 41.2675 33.7151 41.5712C32.9393 41.8749 32.1199 42.1049 31.2569 42.2611C30.394 42.4173 29.5266 42.4954 28.6549 42.4954H28.1973C28.0491 42.4954 27.9009 42.4867 27.7527 42.4693L27.7528 27.5532V25.2041C27.5514 25.2099 27.3151 25.1953 27.1049 25.2041C26.4773 25.2301 25.6803 25.2691 25.0004 25.3212L25 44.8644C25.3051 44.9164 25.8045 44.9511 26.1445 44.9685C26.4844 44.9858 26.8287 44.9945 27.1774 44.9945C28.206 44.9945 29.2738 44.9121 30.3809 44.7472C31.4879 44.5823 32.5732 44.3263 33.6367 43.9792C34.7001 43.6321 35.7113 43.1896 36.6701 42.6516C37.629 42.1049 38.4658 41.454 39.1806 40.6991C39.9041 39.9441 40.4751 39.0807 40.8935 38.1088Z" fill="white"/>
<path d="M27.7653 65.3469L39.3122 65.1428V55.0583L42.0906 55.0091L42.0902 74.7527L39.3126 74.8V67.5648L27.765 67.7665L27.7653 74.7522L25 74.8012V55.0672L27.7655 55.0078L27.7653 65.3469Z" fill="white"/>
<path d="M70.336 65.8916L74.9991 74.7496L72.216 74.8003L67.5499 66.6273C66.3556 66.8038 65.3158 66.799 64.1108 66.7299L64.8405 64.5486C64.8405 64.5486 66.5897 64.4693 67.5332 64.3034C68.4768 64.1374 69.9137 63.9114 70.907 63.1379C71.9648 62.4277 71.8822 60.9063 71.8822 60.9063C71.8822 60.9063 71.8933 60.2535 71.5729 59.7336C71.2612 59.2138 70.8196 58.7763 70.2481 58.421C69.6766 58.0572 68.9925 57.7799 68.1959 57.5893C67.4079 57.3987 66.542 57.3034 65.5982 57.3034C65.1999 57.3034 64.7886 57.3207 64.3643 57.3554C64.0006 57.3814 63.598 57.4204 63.1564 57.4723C62.7211 57.515 62.4248 57.583 62.0184 57.6762L62.0004 74.7542L59.2598 74.8025V55.5749C60.0045 55.3497 60.7492 55.1807 61.4938 55.0681C62.2385 54.9555 62.9182 54.8688 63.533 54.8082C64.2431 54.7475 64.9315 54.7085 65.5982 54.6912C66.161 54.6912 66.7845 54.7302 67.4686 54.8082C68.1526 54.8862 68.8367 55.0248 69.5207 55.224C70.2135 55.4233 70.8802 55.7006 71.521 56.0558C72.1704 56.411 72.7376 56.8659 73.2225 57.4204C73.716 57.9662 73.9837 58.5999 74.2027 59.4543C74.4593 60.455 74.3936 61.4357 74.2027 62.0534C73.5076 64.3034 71.9701 65.3181 70.336 65.8916Z" fill="white"/>
<path d="M70.2316 28.0656C69.4087 29.6392 68.6306 31.7219 67.8973 33.3119C67.1677 34.8859 66.4703 36.4801 65.8052 38.0947L64.9559 40.2651L64.0721 42.6061L63.4646 44.4369H60.6113C61.7601 41.3388 62.9111 38.4385 64.3043 35.4387C65.7056 32.439 67.1966 28.8617 68.7772 25.9194L71.4221 25.8359L70.2316 28.0656Z" fill="white"/>
</svg>
