<svg width="216" height="68" viewBox="0 0 216 68" fill="none" xmlns="http://www.w3.org/2000/svg">
<g clip-path="url(#clip0_1_29)">
<path d="M85.9603 39.4994C85.9603 32.5994 90.8694 26.0994 100.086 26.0994C109.804 26.0994 114.213 33.0994 114.213 39.4994C114.213 46.3994 109.303 52.8994 100.086 52.8994C90.5688 52.8994 85.9603 45.8994 85.9603 39.4994ZM90.2682 38.8994C90.2682 45.2994 94.2757 49.8994 100.086 49.8994C104.895 49.8994 110.105 46.7994 110.105 40.0994C110.105 33.6994 106.098 29.0994 100.287 29.0994C95.4779 28.9994 90.2682 32.0994 90.2682 38.8994ZM115.816 51.2994L114.814 46.2994C116.817 48.5994 119.823 49.8994 122.929 49.7994C127.537 49.7994 130.443 47.8994 130.443 44.5994C130.443 41.3994 127.938 39.5994 124.131 39.5994C122.929 39.4994 121.626 39.6994 120.524 40.1994V36.3994C121.426 36.5994 122.328 36.6994 123.229 36.6994C128.339 36.6994 129.24 34.2994 129.24 32.5994C129.24 30.1994 127.537 28.8994 124.432 28.8994C121.727 28.8994 119.021 29.6994 116.717 31.0994L117.218 26.4994C121.426 26.2994 120.624 25.8994 124.331 25.8994C126.135 25.8994 133.448 25.8994 133.448 32.0994C133.448 36.1994 129.842 37.3994 128.439 37.6994V37.7994C131.745 37.6994 134.55 40.2994 134.65 43.5994V44.0994C134.65 50.3994 128.94 52.6994 123.129 52.6994C120.524 52.9994 118.02 52.3994 115.816 51.2994ZM205.882 47.8994L199.37 38.9994L205.081 31.2994C206.083 29.9994 206.584 29.1994 206.584 28.3994C206.483 27.5994 205.983 26.8994 205.281 26.5994H212.394L203.378 38.1994L207.585 43.7994C210.992 48.2994 212.795 50.4994 216.001 52.3994L212.094 52.5994H211.793C209.088 52.5994 207.686 50.3994 205.882 47.8994ZM71.1328 52.2994C72.335 51.4994 72.9361 50.0994 72.836 48.5994V30.2994C72.9361 28.8994 72.335 27.4994 71.1328 26.5994H85.5595C85.9603 26.5994 86.4612 26.5994 86.8619 26.4994V30.9994C85.8601 29.6994 84.4575 29.4994 81.5521 29.4994C79.849 29.4994 77.6449 29.5994 76.4426 29.5994V48.5994C76.2423 50.0994 77.0438 51.4994 78.3462 52.2994H71.1328ZM193.159 52.2994C194.361 51.4994 194.962 50.0994 194.862 48.5994V30.1994C195.062 28.7994 194.361 27.2994 193.159 26.4994H200.272C199.07 27.2994 198.469 28.6994 198.569 30.1994V48.5994C198.368 49.9994 199.07 51.4994 200.272 52.2994H193.159ZM183.842 52.2994C184.843 51.9994 185.445 50.8994 185.144 49.8994C185.144 49.6994 185.044 49.5994 184.944 49.4994L182.138 42.5994H172.22L169.916 48.3994C169.415 49.6994 169.114 51.1994 170.817 52.3994H163.905C165.808 51.1994 166.509 49.4994 167.311 47.6994L174.624 29.0994C175.125 28.1994 174.725 27.0994 173.923 26.6994C173.923 26.6994 173.823 26.6994 173.823 26.5994H179.834L188.751 48.5994C189.252 50.1994 190.354 51.5994 191.856 52.3994L183.842 52.2994ZM173.222 40.0994H181.237L177.229 29.8994L173.222 40.0994ZM155.389 52.2994C156.591 51.4994 157.292 50.0994 157.092 48.5994V39.5994H142.866V48.5994C142.665 49.9994 143.367 51.4994 144.569 52.2994H137.456C138.658 51.4994 139.359 50.0994 139.159 48.5994V30.1994C139.359 28.7994 138.658 27.2994 137.456 26.4994H144.569C143.367 27.2994 142.665 28.6994 142.866 30.1994V36.6994H157.092V30.1994C157.292 28.7994 156.591 27.2994 155.389 26.4994H162.502C161.3 27.2994 160.598 28.6994 160.799 30.1994V48.5994C160.598 49.9994 161.3 51.4994 162.502 52.2994H155.389ZM177.029 20.5994V19.1994H172.22V14.0994H172.821V18.6994H174.424V14.0994H175.025V18.6994H176.628V14.0994H177.229V18.6994H177.73V20.4994H177.029V20.5994ZM89.7673 20.5994V19.1994H86.5614V14.0994H87.1625V18.6994H89.1662V14.0994H89.7673V18.6994H90.2682V20.4994H89.7673V20.5994ZM208.688 18.6994C208.287 18.0994 208.086 17.3994 208.086 16.6994C208.086 15.9994 208.287 15.2994 208.688 14.6994C209.389 13.8994 210.591 13.7994 211.393 14.4994C211.493 14.5994 211.593 14.5994 211.593 14.6994C211.994 15.2994 212.194 15.9994 212.194 16.6994C212.194 17.3994 211.994 18.0994 211.593 18.6994C210.892 19.4994 209.689 19.5994 208.888 18.8994C208.788 18.7994 208.788 18.6994 208.688 18.6994ZM209.088 15.0994C208.888 15.5994 208.788 16.0994 208.788 16.6994C208.788 17.1994 208.888 17.7994 209.088 18.2994C209.489 18.8994 210.19 19.0994 210.791 18.6994C210.992 18.5994 211.092 18.3994 211.192 18.2994C211.393 17.7994 211.493 17.2994 211.493 16.6994C211.493 16.1994 211.393 15.5994 211.192 15.0994C210.791 14.4994 210.09 14.2994 209.489 14.6994L209.088 15.0994ZM188.35 18.6994C187.949 18.0994 187.749 17.4994 187.749 16.7994C187.749 16.0994 187.949 15.3994 188.45 14.7994C188.851 14.3994 189.352 14.0994 189.953 14.0994C190.454 14.0994 190.855 14.1994 191.255 14.4994L190.955 14.8994C190.654 14.6994 190.354 14.5994 189.953 14.5994C189.352 14.5994 188.851 14.9994 188.65 15.4994C188.45 15.8994 188.45 16.3994 188.45 16.8994C188.45 17.2994 188.45 17.5994 188.65 17.9994C188.851 18.5994 189.452 18.9994 190.053 18.9994C190.454 18.9994 190.754 18.8994 191.055 18.6994L191.355 19.0994C190.955 19.3994 190.454 19.4994 189.953 19.4994C189.252 19.2994 188.65 19.0994 188.35 18.6994ZM157.493 18.6994C157.092 18.0994 156.892 17.3994 156.892 16.6994C156.892 15.9994 157.092 15.2994 157.493 14.6994C158.194 13.8994 159.396 13.7994 160.198 14.4994C160.298 14.5994 160.398 14.5994 160.398 14.6994C160.799 15.2994 160.999 15.9994 160.999 16.6994C160.999 17.3994 160.799 18.0994 160.398 18.6994C159.697 19.4994 158.495 19.5994 157.693 18.8994C157.593 18.7994 157.593 18.6994 157.493 18.6994ZM157.893 15.0994C157.693 15.5994 157.593 16.0994 157.593 16.6994C157.593 17.1994 157.693 17.7994 157.893 18.2994C158.294 18.8994 158.996 19.0994 159.597 18.6994C159.797 18.5994 159.897 18.3994 159.997 18.2994C160.198 17.7994 160.298 17.2994 160.298 16.6994C160.298 16.1994 160.198 15.5994 159.997 15.0994C159.697 14.4994 158.895 14.2994 158.294 14.6994L157.893 15.0994ZM138.558 18.6994C138.157 18.0994 137.957 17.3994 137.957 16.6994C137.957 15.9994 138.157 15.2994 138.558 14.6994C139.259 13.8994 140.461 13.7994 141.263 14.4994C141.363 14.5994 141.463 14.5994 141.463 14.6994C141.864 15.2994 142.064 15.9994 142.064 16.6994C142.064 17.3994 141.864 18.0994 141.463 18.6994C140.762 19.4994 139.56 19.5994 138.758 18.8994C138.758 18.7994 138.658 18.6994 138.558 18.6994ZM138.958 15.0994C138.758 15.5994 138.658 16.0994 138.658 16.6994C138.658 17.1994 138.758 17.7994 138.958 18.2994C139.359 18.8994 140.06 19.0994 140.662 18.6994C140.862 18.5994 140.962 18.3994 141.062 18.2994C141.263 17.7994 141.363 17.2994 141.363 16.6994C141.363 16.1994 141.263 15.5994 141.062 15.0994C140.662 14.4994 139.96 14.2994 139.359 14.6994L138.958 15.0994ZM102.19 18.6994C101.79 18.0994 101.589 17.3994 101.589 16.6994C101.589 15.9994 101.79 15.2994 102.19 14.6994C102.892 13.8994 104.094 13.7994 104.895 14.4994C104.996 14.5994 105.096 14.5994 105.096 14.6994C105.496 15.2994 105.697 15.9994 105.697 16.6994C105.697 17.3994 105.496 18.0994 105.096 18.6994C104.394 19.4994 103.192 19.5994 102.391 18.8994C102.391 18.7994 102.291 18.6994 102.19 18.6994ZM102.591 15.0994C102.391 15.5994 102.291 16.0994 102.291 16.6994C102.291 17.1994 102.391 17.7994 102.591 18.2994C102.992 18.8994 103.693 19.0994 104.294 18.6994C104.495 18.5994 104.595 18.3994 104.695 18.2994C104.895 17.7994 104.996 17.2994 104.996 16.6994C104.996 16.1994 104.895 15.5994 104.695 15.0994C104.294 14.4994 103.593 14.2994 102.992 14.6994L102.591 15.0994ZM82.3536 19.2994C82.1532 19.2994 81.8527 19.1994 81.7525 18.9994C81.6523 18.7994 81.5521 18.5994 81.5521 18.3994L81.3517 17.5994C81.3517 17.3994 81.2516 17.1994 81.1514 17.0994C81.0512 16.9994 80.8508 16.8994 80.6504 16.8994H80.0493V19.3994H79.4482V14.2994H80.0493V16.3994H80.7506C80.951 16.3994 81.1514 16.3994 81.2515 16.1994C81.3517 16.0994 81.4519 15.8994 81.4519 15.6994L81.5521 14.9994C81.5521 14.7994 81.6523 14.5994 81.7525 14.4994C81.9528 14.3994 82.053 14.2994 82.3536 14.2994H82.6541L82.7543 14.6994L82.554 14.7994C82.4538 14.7994 82.3536 14.8994 82.3536 14.8994C82.2534 14.7994 82.1532 14.8994 82.1532 14.9994L81.9529 15.6994C81.9529 15.8994 81.8527 16.0994 81.7525 16.1994L81.4519 16.4994C81.5521 16.4994 81.6523 16.5994 81.7525 16.6994C81.8527 16.8994 81.9529 16.9994 82.053 17.1994L82.3536 18.1994C82.3536 18.3994 82.4538 18.4994 82.554 18.5994C82.6541 18.5994 82.7543 18.6994 82.8545 18.6994H82.9547L82.8545 19.0994L82.3536 19.2994ZM201.073 19.1994V14.0994H202.276C202.777 14.0994 203.278 14.1994 203.678 14.3994C203.979 14.5994 204.179 14.9994 204.179 15.3994C204.179 15.6994 204.079 15.9994 203.879 16.1994C203.678 16.2994 203.478 16.4994 203.278 16.4994C203.478 16.4994 203.778 16.5994 203.979 16.7994C204.279 17.0994 204.48 17.3994 204.48 17.7994C204.48 18.1994 204.38 18.4994 204.079 18.7994C203.578 19.0994 203.077 19.2994 202.476 19.1994H201.073ZM201.675 18.6994H202.777C203.077 18.6994 203.278 18.5994 203.578 18.4994C203.778 18.2994 203.879 18.0994 203.879 17.7994C203.879 17.4994 203.778 17.1994 203.578 16.9994C203.278 16.7994 202.977 16.7994 202.676 16.7994H201.775L201.675 18.6994ZM201.675 16.2994H202.576C202.877 16.2994 203.077 16.2994 203.278 16.0994C203.678 15.6994 203.578 15.1994 203.278 14.7994C203.077 14.5994 202.777 14.5994 202.476 14.5994H201.775L201.675 16.2994ZM195.563 19.1994V14.5994H194.161V14.0994H197.567V14.5994H196.164V19.1994H195.563ZM181.437 19.1994V14.0994H184.242L184.142 14.5994H182.038V16.2994H183.842V16.7994H182.038V18.6994H184.342V19.1994H181.437ZM165.007 19.1994V14.0994H167.912L167.812 14.5994H165.608V16.1994H166.409C166.91 16.1994 167.311 16.2994 167.712 16.4994C168.112 16.7994 168.313 17.2994 168.313 17.6994C168.313 18.0994 168.213 18.4994 167.912 18.6994C167.411 19.0994 166.91 19.1994 166.309 19.0994L165.007 19.1994ZM165.608 18.6994H166.71C167.01 18.6994 167.211 18.5994 167.511 18.4994C167.712 18.2994 167.812 17.9994 167.812 17.7994C167.812 17.4994 167.712 17.1994 167.511 16.9994C167.211 16.7994 166.91 16.7994 166.61 16.7994H165.708V18.6994H165.608ZM146.072 19.1994V14.0994H148.877L148.777 14.5994H146.673V16.2994H148.476V16.7994H146.773V18.6994H149.077V19.1994H146.072ZM133.448 19.1994V16.6994H131.344V19.1994H130.743V14.0994H131.344V16.1994H133.448V14.0994H134.049V19.1994H133.448ZM123.83 19.1994V14.0994H125.233C125.634 14.0994 126.034 14.0994 126.335 14.2994C126.736 14.5994 127.036 14.9994 127.036 15.4994C127.036 15.9994 126.936 16.3994 126.535 16.6994C126.235 16.9994 125.734 17.0994 125.333 17.0994H124.432V19.0994L123.83 19.1994ZM124.432 16.6994H125.333C125.634 16.6994 125.934 16.5994 126.135 16.3994C126.335 16.1994 126.435 15.8994 126.435 15.6994C126.435 15.3994 126.335 15.0994 126.135 14.8994C125.834 14.6994 125.534 14.5994 125.133 14.5994H124.532L124.432 16.6994ZM117.218 19.1994V14.0994H120.023L119.923 14.5994H117.819V16.2994H119.623V16.7994H117.819V18.6994H120.124V19.1994H117.218ZM112.409 19.1994V16.6994H110.305V19.1994H109.704V14.0994H110.305V16.1994H112.409V14.0994H113.01V19.1994H112.409ZM97.0809 19.1994V15.6994V14.6994C97.0809 14.8994 96.9807 15.0994 96.8805 15.1994L94.7766 19.1994H94.1755V14.0994H94.7766V17.6994C94.7766 17.7994 94.7766 18.1994 94.6764 18.4994C94.7766 18.2994 94.8768 17.9994 94.977 17.7994L96.9807 14.0994H97.682V19.1994H97.0809ZM75.1402 19.1994L74.6393 17.5994H72.7358L72.2349 19.1994H71.6337L73.3369 14.0994H74.1384L75.8415 19.1994H75.1402ZM72.9362 17.1994H74.5391L73.7376 14.6994L72.9362 17.1994Z" fill="#191C20"/>
<path d="M57.3047 46C57.2046 48 56.7036 51.3 54.8001 54.1C53.5979 55.9 51.9949 57.3 49.9912 58.4C48.3882 59.3 46.7853 59.9 44.9819 60.5C43.0784 61.1 41.0747 61.6 39.1712 62.1C37.5682 62.5 35.865 63 34.2621 63.6C33.0598 64.1 31.9578 64.6 30.8558 65.4C29.9541 66.1 29.1526 66.9 28.5515 67.9H28.4513C28.4513 67.8 28.3511 67.7 28.3511 67.7C27.6498 66.5 26.5478 65.6 25.3456 64.9C24.0431 64.1 22.7407 63.6 21.3381 63.1C19.5348 62.5 17.7315 62.1 15.9281 61.6C14.0246 61.1 12.1211 60.6 10.3177 59.9C8.61458 59.2 7.01161 58.4 5.50883 57.4C3.30475 55.8 1.80196 53.7 0.900293 51.2C0.499551 50 0.0988086 48.7 -0.00137697 47.4C-0.00137697 46.8 -0.101562 46.5 -0.101562 45.5C-0.00137697 29.6 -0.00137697 0 -0.00137697 0H57.3047V46ZM28.7519 64.9C28.8521 64.8 28.9522 64.8 28.9522 64.7C29.353 64.2 29.8539 63.7 30.3548 63.3C31.4569 62.4 32.7593 61.7 34.1619 61.2C35.865 60.5 37.5682 60 39.3715 59.6C41.1749 59.1 43.0784 58.7 44.8817 58.1C46.5849 57.5 48.288 56.9 49.891 56C52.2955 54.6 54.0988 52.8 55.301 50.5C56.2027 48.6 56.7036 46.5 56.8038 44.4C56.904 43.2 56.904 42 56.904 40.8V0.6H0.599736V41.9C0.599736 43 0.699922 44.1 0.800107 45.2C0.900293 46.4 1.20085 47.6 1.60159 48.8C2.40308 51.4 4.00604 53.5 6.21013 55.2C7.61272 56.2 9.11551 56.9 10.7185 57.5C12.4216 58.2 14.1248 58.6 15.9281 59.1C17.6313 59.6 19.3344 60 21.1378 60.5C22.6406 60.9 24.0431 61.4 25.3456 62.2C26.648 62.8 27.75 63.7 28.7519 64.9C28.7519 64.9 28.6517 64.9 28.7519 64.9Z" fill="#191C20"/>
<path d="M49.8928 37.3003C48.9911 43.2003 45.9855 47.3003 45.9855 47.3003H47.1878C47.1878 47.3003 42.8798 52.2003 40.0746 51.9003C39.6739 51.9003 45.9855 46.7003 47.9893 36.0003C48.8909 31.0003 47.7889 25.6003 47.7889 25.6003C48.9911 26.5003 50.6943 31.9003 49.8928 37.3003ZM43.5811 22.7003C43.5811 22.7003 44.082 26.2003 43.8816 30.5003C43.5811 38.4003 41.4772 43.0003 37.9707 47.1003C37.069 48.2003 29.2546 55.2003 29.2546 55.2003C35.8668 55.3003 41.9781 48.2003 41.9781 48.2003H40.3752C40.3752 48.1003 44.2824 44.2003 45.7852 36.6003C46.9874 30.2003 44.6831 24.4003 44.6831 24.4003L43.5811 22.7003ZM35.7666 48.2003H33.0616C33.0616 48.2003 41.1766 42.6003 41.1766 30.7003C41.1766 24.3003 40.1748 19.5003 40.1748 19.5003L38.0709 16.0003V18.4003C38.0709 20.8003 37.069 24.0003 35.5663 25.5003C33.9633 27.0003 31.8594 28.0003 29.4549 28.0003C32.9614 29.2003 36.7685 27.4003 38.672 24.3003C39.1729 28.4003 39.4735 33.1003 37.9707 37.1003C36.7685 40.3003 34.865 43.0003 32.8612 45.2003V42.0003L30.6572 40.5003C30.6572 40.5003 30.6572 43.7003 30.557 43.6003C30.557 43.6003 29.4549 43.0003 29.0542 42.5003C27.9522 41.5003 27.0505 40.0003 27.0505 40.0003C27.0505 40.0003 27.1507 43.6003 26.9503 43.5003C24.646 42.1003 24.2453 39.7003 24.2453 39.7003V42.2003C24.2453 42.2003 23.3436 41.7003 22.6423 41.0003C21.941 40.3003 21.4401 39.1003 21.4401 39.1003L15.6293 40.2003L14.928 42.5003L16.0301 41.5003L20.2379 40.7003C20.2379 40.7003 20.7388 41.5003 21.5403 42.4003C22.3418 43.3003 23.7444 44.2003 23.7444 44.2003V43.5003C25.2471 45.2003 25.5477 45.6003 26.249 46.0003C27.7518 47.0003 28.8538 47.5003 28.8538 47.5003C28.8538 47.5003 28.8538 44.6003 28.954 44.6003C28.954 44.6003 29.7555 45.9003 31.1581 46.7003C28.2527 49.4003 25.5477 51.0003 24.9466 51.4003C24.8464 51.5003 21.1395 53.7003 21.3399 53.7003C28.1525 55.8003 35.7666 48.2003 35.7666 48.2003ZM49.5922 44.3003C50.6943 40.1003 53.5996 34.3003 50.1933 24.6003C51.5959 26.2003 52.4976 28.7003 52.8983 31.0003C52.8983 30.3003 52.8983 29.6003 52.7982 28.9003C51.8965 20.1003 46.9874 13.5003 41.8779 10.2003C38.672 8.10029 36.0672 7.50029 35.4661 8.60029C34.865 9.50029 35.5663 12.5003 35.6664 13.4003C35.7666 15.3003 36.1674 19.1003 34.364 20.6003C32.0598 22.5003 25.6479 17.4003 25.6479 17.4003C25.6479 17.4003 26.5496 17.7003 27.5514 15.9003C27.6516 15.8003 27.6516 15.6003 27.7518 15.5003C28.3529 13.5003 28.4531 11.6003 27.2509 7.70029C27.6516 7.50029 28.4531 7.20029 29.0542 7.00029C25.3473 7.10029 22.0412 7.00029 21.941 7.00029C21.941 8.80029 19.9373 8.60029 19.9373 7.70029C18.0338 7.70029 16.9317 7.50029 17.1321 10.2003C17.1321 10.2003 18.4345 10.0003 18.8353 9.90029C22.1414 9.70029 22.6423 12.7003 22.4419 14.8003C22.1414 16.8003 21.1395 16.4003 20.0375 19.9003C19.0356 24.3003 20.839 26.6003 23.0431 30.0003C21.1395 29.0003 20.9392 28.9003 19.6368 27.5003C20.3381 30.8003 22.4419 34.6003 22.9429 35.5003C26.3492 34.6003 27.1507 33.7003 27.1507 33.4003V35.7003C26.6497 36.5003 24.3455 36.9003 20.5384 37.7003C15.2286 38.6003 15.3288 38.7003 14.5273 38.2003C13.9262 37.8003 13.7258 37.1003 13.5254 36.8003C13.4253 36.8003 10.8204 37.1003 10.2193 37.2003C9.91876 37.3003 9.51802 37.7003 9.6182 38.3003C9.71839 39.0003 10.1191 39.2003 10.9206 39.2003V39.4003C10.9206 39.4003 9.91876 39.5003 10.0189 40.5003C10.1191 41.5003 11.2212 41.5003 11.2212 41.5003V41.6003C11.2212 41.6003 10.3195 41.9003 10.5199 42.9003C10.7202 43.9003 11.7221 43.7003 12.0227 43.7003L14.4271 43.4003L15.1284 49.0003L12.724 49.3003L12.223 44.5003C12.0227 44.5003 11.6219 44.6003 11.3214 44.6003C10.9206 44.6003 9.51802 44.6003 9.21746 43.3003C9.01709 42.3003 9.6182 41.9003 9.6182 41.9003C9.51802 41.8003 8.71653 41.7003 8.61635 40.9003C8.41598 40.0003 9.11727 39.6003 9.21746 39.5003C9.21746 39.5003 8.51616 39.3003 8.41598 38.4003C8.2156 37.5003 8.71653 37.0003 8.9169 36.9003C9.11727 36.7003 9.31765 36.6003 9.6182 36.5003H9.71839L5.21004 37.0003C5.21004 37.0003 6.91319 32.7003 11.8223 32.4003C16.9317 32.0003 19.1358 35.6003 19.1358 35.6003L14.8278 36.0003C14.928 36.3003 15.2286 36.7003 15.5291 36.9003C16.3306 37.3003 19.4364 36.5003 20.6386 36.3003H20.7388C20.2379 35.2003 18.134 30.6003 17.4327 26.3003C15.8297 26.4003 12.9243 26.4003 12.6238 26.0003C12.0227 25.0003 12.3232 24.9003 12.0227 23.9003C11.7221 22.9003 10.1191 22.5003 9.41783 23.4003C8.51616 24.5003 8.81672 26.0003 10.8204 26.3003C10.7202 26.3003 10.8204 26.3003 10.8204 25.9003H11.4215C11.4215 26.6003 11.5217 27.0003 11.9225 27.3003C10.3195 27.5003 9.21746 26.9003 8.71653 26.1003C8.31579 26.2003 8.01523 26.1003 7.61449 26.1003C7.41412 26.3003 7.21375 26.6003 7.31394 27.0003C7.41412 27.8003 8.01523 28.0003 8.41598 28.0003C9.11727 28.0003 9.51802 27.1003 9.51802 27.1003V28.7003H17.633C17.633 28.7003 16.2304 31.0003 13.826 31.9003C12.9243 32.3003 11.7221 32.5003 10.4197 32.5003C8.11542 32.4003 6.51245 31.6003 5.61078 30.7003C4.70911 29.8003 4.00781 28.8003 4.00781 28.8003H7.61449C7.21375 28.6003 6.71282 28.3003 6.41227 27.7003C6.01152 26.8003 6.31208 26.2003 6.71282 25.9003C6.51245 25.8003 6.31208 25.7003 6.21189 25.5003C6.01152 25.3003 5.81115 25.0003 5.71097 24.7003C5.5106 24.1003 5.5106 23.5003 5.71097 23.0003C5.91134 22.4003 6.61264 21.7003 7.41412 21.6003C8.2156 21.5003 8.81672 21.7003 9.41783 22.0003V16.9003H11.8223L11.9225 21.7003C12.4234 21.7003 12.9243 21.9003 13.2249 22.5003C13.5254 23.1003 13.5254 24.0003 13.5254 24.0003C13.5254 24.0003 13.4253 24.8003 14.3269 25.0003H17.1321C17.0319 24.0003 17.0319 23.1003 17.1321 22.2003C17.4327 20.4003 18.0338 19.1003 18.5347 18.2003C18.7351 18.0003 18.8353 17.7003 19.0356 17.6003L20.0375 16.4003C20.9392 15.3003 21.3399 14.5003 21.2397 13.1003C21.0394 11.0003 16.8316 10.8003 16.3306 12.1003C15.9299 11.5003 15.9299 10.8003 15.9299 10.1003C15.9299 9.40029 16.2304 9.00029 16.3306 8.60029C16.4308 7.10029 18.0338 7.00029 19.236 6.90029C19.236 3.90029 27.4512 5.10029 30.3566 7.20029C30.056 7.30029 28.8538 8.00029 28.8538 8.00029C29.6553 9.60029 30.3566 15.4003 30.4568 18.7003C33.0616 20.0003 32.8612 16.5003 32.3603 12.0003C32.1599 9.80029 32.7611 8.40029 33.6627 7.40029C34.5644 6.40029 35.8668 6.40029 36.8687 6.50029C41.1766 6.80029 53.5996 13.8003 54.1006 28.8003C54.4011 35.1003 51.3956 43.4003 49.5922 44.3003ZM8.51616 22.4003C8.11542 22.1003 6.21189 22.2003 6.21189 23.5003C6.21189 24.3003 6.51245 24.6003 6.91319 24.8003C7.11356 24.9003 7.41412 25.0003 7.61449 25.0003C7.51431 24.1003 7.81486 23.1003 8.51616 22.4003Z" fill="#191C20"/>
</g>
<defs>
<clipPath id="clip0_1_29">
<rect width="216" height="68" fill="white"/>
</clipPath>
</defs>
</svg>
