<svg width="143" height="57" viewBox="0 0 143 57" fill="none" xmlns="http://www.w3.org/2000/svg">
<path d="M7.80797 21.2692V15.4886H0.0198975V28.9631L7.80797 21.2692Z" fill="#191C20"/>
<path d="M7.80797 44.8345V32.2059L0.0198975 32.8303V44.8345H7.80797Z" fill="#191C20"/>
<path d="M7.80785 21.2691V15.4885H0.0197754V28.963L7.80785 21.2691Z" fill="#191C20"/>
<path d="M18.6225 44.8343V31.3397L10.9353 31.964V44.8343H18.6225Z" fill="#191C20"/>
<path d="M37.4675 44.8343V29.8492L29.5988 30.4736V44.8343H37.4675Z" fill="#191C20"/>
<path d="M100.901 12.1854V20.6649L113.855 20.5843V15.5691H108.508V4.35046L100.901 12.1854Z" fill="#191C20"/>
<path d="M34.582 17.1805C32.6652 15.5893 30.1836 14.8038 27.1571 14.8038C24.7359 14.8038 22.7385 15.3879 21.1647 16.5763C20.2971 17.2409 19.3488 18.3285 18.3804 19.8391V15.5491H10.9353V21.2289L36.983 21.0678C36.5189 19.4162 35.7321 18.107 34.582 17.1805Z" fill="#191C20"/>
<path d="M7.80785 44.8342V32.2057L0.0197754 32.8301V44.8342H7.80785Z" fill="#191C20"/>
<path d="M90.4706 30.1512C90.4706 33.0918 89.8451 35.2268 88.6144 36.5763C87.3836 37.9257 85.8704 38.5904 84.0747 38.5904C81.3912 38.5904 79.535 37.3618 78.4858 34.9045C77.9209 33.5752 77.6183 32.0848 77.6183 30.3929C77.6183 28.9629 77.7595 27.7141 78.042 26.6064L69.8504 27.2509C69.7091 28.3184 69.6284 29.4463 69.6284 30.6346C69.6284 35.2671 70.7583 38.9529 73.018 41.6519C75.2778 44.3709 78.2841 45.7204 82.0571 45.7204C84.4984 45.7204 86.4959 45.1161 88.0091 43.9278C88.8565 43.2833 89.6434 42.3165 90.3899 41.0275V42.961C90.3899 43.4444 90.3697 43.8875 90.3495 44.3105V44.8744H97.9762C97.9762 44.5925 97.9964 44.3306 97.9964 44.0487V25.0152L89.7241 25.6799C90.2285 26.8883 90.4706 28.3788 90.4706 30.1512Z" fill="#191C20"/>
<path d="M142.747 26.3447C142.384 24.0486 141.617 22.0143 140.407 20.2822C139.075 18.3083 137.38 16.8582 135.322 15.9317C133.264 15.0052 130.964 14.5621 128.402 14.5621C124.084 14.5621 120.594 15.9115 117.89 18.6306C117.305 19.2147 116.78 19.8592 116.316 20.5642L126.868 20.5037C127.353 20.403 127.877 20.3627 128.422 20.3627C130.238 20.3627 131.751 20.9267 132.982 22.0747C134.213 23.2228 134.899 24.8945 135.04 27.1101H121.804C122.026 25.4585 122.51 24.0889 123.237 22.9811L114.843 23.6458C114.177 25.5793 113.855 27.7949 113.855 30.3125C113.855 35.7305 115.348 39.658 118.334 42.0548C121.32 44.4517 124.77 45.6601 128.684 45.6601C133.426 45.6601 137.118 44.2301 139.741 41.37C141.436 39.5775 142.384 37.805 142.586 36.0729H134.737C134.273 36.939 133.749 37.6036 133.163 38.087C132.074 38.9934 130.641 39.4365 128.886 39.4365C127.232 39.4365 125.819 39.0739 124.649 38.3287C122.712 37.1404 121.703 35.086 121.582 32.1454H142.989C143.03 29.6478 142.949 27.6942 142.747 26.3447Z" fill="#191C20"/>
<path d="M108.508 34.9651V24.1694L100.901 24.7737V35.3881C100.901 39.9199 101.749 42.216 103.323 43.7668C104.715 45.1364 106.732 45.7205 109.053 45.7205C111.111 45.7205 112.765 45.499 113.835 45.1767V39.2351C113.149 39.3559 112.422 39.4566 111.595 39.4566C109.88 39.4566 108.508 38.4898 108.508 34.9651Z" fill="#191C20"/>
<path d="M60.2868 30.0305C60.2868 32.9913 59.6614 35.1464 58.4306 36.4959C57.1999 37.8453 55.6866 38.5301 53.8909 38.5301C53.8102 38.5301 53.7295 38.5301 53.6488 38.5301C51.0864 38.4496 49.3109 37.2209 48.3021 34.8241C47.7372 33.4948 47.4345 31.9842 47.4345 30.2722C47.4345 29.8493 47.4547 29.4464 47.4749 29.0436L39.4648 29.6881C39.4648 29.8694 39.4648 30.0708 39.4648 30.2521C39.4648 34.7839 40.5947 38.369 42.8545 41.0075C44.0651 42.4174 45.4976 43.4647 47.1319 44.1092C48.5644 44.6732 50.1381 44.9753 51.8935 44.9753C52.4988 44.9753 53.0839 44.935 53.6488 44.8746C55.3033 44.6531 56.7156 44.1092 57.8455 43.2432C58.6929 42.6188 59.4798 41.6722 60.2263 40.4234V42.3167C60.2263 43.0216 60.2061 43.6259 60.1658 44.1495C60.1053 44.8948 60.0044 45.4788 59.8833 45.9824C59.5605 46.9693 59.0359 47.7951 58.2692 48.4597C56.9577 49.6078 55.041 50.1919 52.5391 50.1919C50.5013 50.1919 48.8267 49.9099 47.495 49.3258C46.809 49.0237 46.1634 48.7216 45.5783 48.3993L41.0991 53.0117C41.5834 53.3944 42.2088 53.7972 42.9755 54.2201C43.7624 54.6431 44.6905 55.0258 45.7599 55.3883C46.809 55.7509 47.9793 56.0329 49.2302 56.2544C50.4811 56.476 51.833 56.5767 53.2655 56.5767C55.384 56.5767 57.3209 56.335 59.0964 55.8314C60.872 55.3279 62.4054 54.5625 63.6967 53.5152C64.2212 53.0922 64.7055 52.6088 65.1292 52.0852C65.4116 51.7629 65.6941 51.4205 65.9362 51.058C66.1582 50.7156 66.3599 50.3329 66.5617 49.9301C66.6222 49.8092 66.7029 49.6682 66.7635 49.5474C67.4898 47.9562 67.8732 46.0831 67.8732 43.9481V27.4726L60.2061 28.0768C60.2465 28.6609 60.2868 29.3256 60.2868 30.0305Z" fill="#191C20"/>
<path d="M90.5111 19.8391C89.3611 17.7243 87.8478 16.2741 85.9916 15.4886C84.9021 15.0254 83.6108 14.8038 82.1379 14.8038C78.143 14.8038 75.0762 16.3346 72.8971 19.3759C72.5541 19.8593 72.2515 20.3628 71.9489 20.8663L97.9965 20.7052V15.5289H90.4909V19.8391H90.5111Z" fill="#191C20"/>
<path d="M60.3273 19.7183C59.1773 17.6639 57.6641 16.2339 55.8078 15.4685C55.1622 15.2067 54.4358 15.0254 53.649 14.9247C53.1244 14.8441 52.5594 14.8038 51.9541 14.8038C50.0979 14.8038 48.4233 15.1261 46.9504 15.7908C45.2758 16.536 43.8634 17.684 42.7134 19.2752C42.2897 19.8391 41.9265 20.4434 41.5835 21.0678L67.8329 20.9066V15.5289H60.3273V19.7183Z" fill="#191C20"/>
<path d="M7.80825 0V5.76039L0 13.7967L0.0201776 0H7.80825Z" fill="#191C20"/>
</svg>
