<svg width="118" height="30" viewBox="0 0 118 30" fill="none" xmlns="http://www.w3.org/2000/svg">
<path fill-rule="evenodd" clip-rule="evenodd" d="M28.6708 0.551621H40.3515C48.528 0.551621 53.0304 4.94341 53.0304 11.2871C53.0304 17.6096 48.3581 22.1287 40.033 22.1287H35.3819V29.5757H28.6708V0.551621ZM55.494 15C55.494 6.02545 62.651 0 70.7214 0C78.7916 0 85.9487 5.77085 85.9487 15C85.9487 24.2291 78.9616 30 70.7214 30C62.4599 29.9788 55.494 23.9533 55.494 15ZM70.7214 23.7836C65.6031 23.7836 62.3537 19.7949 62.3537 15C62.3537 10.2051 65.5606 6.21642 70.7214 6.21642C75.8821 6.21642 79.0677 10.1626 79.0677 15C79.089 19.8373 75.8396 23.7836 70.7214 23.7836ZM97.2047 13.3027L107.696 0.572833H115.575L103.81 14.3211L116 29.5757H107.484L97.2047 16.3578V29.5757H90.4936V0.551621H97.2047V13.3027ZM6.7111 13.3027L17.2025 0.572833H25.0817L13.316 14.3211L25.5064 29.5757H16.9901L6.7111 16.3578V29.5757H0V0.551621H6.7111V13.3027ZM35.3819 6.42858V16.3578H39.3958C44.2168 16.3578 46.1706 14.4059 46.1706 11.2871C46.1706 8.8048 44.5778 6.42858 39.7781 6.42858H35.3819Z" fill="#191C20"/>
</svg>
