<svg width="141" height="35" viewBox="0 0 141 35" fill="none" xmlns="http://www.w3.org/2000/svg">
<path d="M12.6195 0.230469C10.0184 0.230469 6.93372 2.71504 4.39125 6.88753C1.73888 11.2128 0.15625 16.5639 0.15625 21.2129C0.15625 28.0191 4.00292 34.8799 12.6195 34.8799C21.236 34.8799 25.0827 28.0191 25.0827 21.2129C25.0827 16.5639 23.5 11.2128 20.8623 6.89117C18.2942 2.71504 15.2132 0.230469 12.6195 0.230469Z" fill="#191C20"/>
<path d="M79.9102 10.4382H88.6329V33.0213H97.9785V10.4382H106.701V2.08594H79.9102V10.4382Z" fill="#191C20"/>
<path d="M126.642 10.4382H140.35V2.08594H126.642C114.046 2.08594 107.32 8.30283 107.32 17.5536C107.32 26.8044 114.043 33.0213 126.642 33.0213H140.35V24.669H126.642C120.813 24.669 116.981 22.5991 116.981 17.5536C116.981 12.5081 120.813 10.4382 126.642 10.4382Z" fill="#191C20"/>
<path d="M60.9019 2.08594L55.9195 20.5511L50.9372 2.08594H34.4258V33.0213H43.7714V7.85903L50.5635 33.0213H61.2792L68.075 7.84448V33.0213H77.4206V2.08594H60.9019Z" fill="#191C20"/>
</svg>
