<svg width="106" height="61" viewBox="0 0 106 61" fill="none" xmlns="http://www.w3.org/2000/svg">
<path d="M0 31.8523V0H31.5035V31.8523H22.5927V7.70967H8.91639V31.8523H0ZM58.8434 13.1387L44.0447 31.8523H36.0293V0H44.94V18.7121L59.7373 0H67.7527V31.8523H58.8434V13.1387ZM81.1893 18.7914V31.8523H72.2785V0H81.1893V13.4912L92.3165 0H102.75L89.8011 15.4576L106 31.8523H93.8871L81.1893 18.7914Z" fill="#191C20"/>
<path d="M33.3589 47.3877H36.1153V48.9591C36.4452 48.4098 36.9113 47.9557 37.4677 47.6411C38.0242 47.3265 38.6532 47.1621 39.2921 47.164C41.7266 47.164 43.6285 48.9789 43.6285 52.2816V52.4345C43.6285 55.7387 41.7644 57.5903 39.2921 57.5903C37.7509 57.5903 36.6301 56.8273 36.1153 55.8534V60.7798H33.3589V47.3877ZM40.8313 52.4487V52.2958C40.8313 50.2714 39.8446 49.2776 38.4544 49.2776C37.0077 49.2776 36.0189 50.2898 36.0189 52.2958V52.4487C36.0189 54.4533 36.9699 55.4215 38.4723 55.4215C39.9757 55.4215 40.8313 54.3896 40.8313 52.4487Z" fill="#191C20"/>
<path d="M44.0489 52.5052V52.3566C44.0489 49.2053 46.2757 47.1625 49.1653 47.1625C51.7329 47.1625 54.0154 48.6716 54.0154 52.2419V53.0064H46.845C46.9196 54.6627 47.8149 55.6126 49.3163 55.6126C50.5852 55.6126 51.2182 55.0591 51.3891 54.2182H53.9945C53.6716 56.3756 51.9605 57.579 49.2408 57.579C46.2359 57.579 44.0479 55.689 44.0479 52.4996L44.0489 52.5052ZM51.3325 51.2963C51.2371 49.7886 50.4769 49.0623 49.1643 49.0623C47.9281 49.0623 47.0915 49.8834 46.8818 51.2963H51.3325Z" fill="#191C20"/>
<path d="M61.468 53.2698H57.7795V57.3751H55.0598V47.3877H57.7795V51.302H61.468V47.3877H64.1877V57.3751H61.468V53.2698Z" fill="#191C20"/>
<path d="M67.2223 59.8007H64.8445V55.4122H65.4158C66.0617 55.146 66.3479 54.2286 66.5188 52.7012C66.6708 51.4271 66.7464 49.5117 66.7464 47.3925H74.4871V55.4122H75.8971V59.8007H73.5202L73.4825 57.3757H67.2631L67.2223 59.8007ZM68.382 55.4122H71.7873V49.3362H69.1242C69.1053 50.5012 69.0477 51.8376 68.9334 52.9064C68.8192 53.9752 68.687 54.7779 68.382 55.4079" fill="#191C20"/>
<path d="M76.1257 54.6065C76.1257 52.2763 78.2542 51.3986 81.2988 51.3986H82.4266V50.9966C82.4266 49.8131 82.0659 49.1647 80.8109 49.1647C79.7268 49.1647 79.232 49.7182 79.1187 50.5804H76.5133C76.6852 48.212 78.5493 47.1616 80.9828 47.1616C83.4163 47.1616 85.1473 48.1525 85.1473 50.8663V57.3783H82.4693V56.1793C81.9049 56.982 81.0235 57.595 79.4645 57.595C77.658 57.595 76.1367 56.7172 76.1367 54.6221L76.1257 54.6065ZM82.4306 53.8958V53.0564H81.3664C79.7685 53.0564 78.8365 53.4004 78.8365 54.472C78.8365 55.1982 79.2737 55.6753 80.2823 55.6753C81.4985 55.6753 82.4306 55.0071 82.4306 53.8987" fill="#191C20"/>
<path d="M24.3428 43.7216H28.3553L32.7662 57.3756H29.5537L28.6216 54.339H23.695L22.7629 57.3756H19.8733L24.3428 43.7216ZM24.3607 52.1433H27.9558L26.1682 46.2428L24.3607 52.1433Z" fill="#191C20"/>
</svg>
