<svg width="200" height="51" viewBox="0 0 200 51" fill="none" xmlns="http://www.w3.org/2000/svg">
<g clip-path="url(#clip0_1_412)">
<path d="M200 0H0V51H200V0Z" fill="#191C20"/>
<path d="M28.3267 18.2303C29.9041 18.2303 31.2211 18.7448 32.2776 19.7737C33.3341 20.7877 33.8624 22.0702 33.8624 23.6211C33.8624 25.1571 33.3341 26.4395 32.2776 27.4685C31.2211 28.4825 29.9041 28.9895 28.3267 28.9895H25.7151V33.8882H22.3223V18.2303H28.3267ZM28.1928 25.8579C28.8624 25.8579 29.3982 25.6492 29.7999 25.2316C30.2166 24.814 30.4249 24.2772 30.4249 23.6211C30.4249 22.965 30.2166 22.4281 29.7999 22.0106C29.3982 21.5781 28.8624 21.3619 28.1928 21.3619H25.7151V25.8579H28.1928ZM44.1318 33.8882L41.0961 28.5421H38.9309V33.8882H35.5381V18.2303H41.855C42.8818 18.2303 43.8119 18.454 44.6452 18.9014C45.4786 19.3338 46.1259 19.9452 46.5872 20.7356C47.0634 21.5259 47.3015 22.4206 47.3015 23.4198C47.3015 24.4189 47.0485 25.3211 46.5425 26.1264C46.0366 26.9316 45.3447 27.543 44.4666 27.9606L47.9265 33.8882H44.1318ZM38.9309 21.3619V25.4106H41.6318C42.3164 25.4106 42.8595 25.2242 43.2613 24.8514C43.678 24.4785 43.8863 23.9939 43.8863 23.3974C43.8863 22.9948 43.797 22.6443 43.6184 22.3461C43.4399 22.0329 43.1795 21.7943 42.8372 21.6303C42.4949 21.4514 42.0932 21.3619 41.6318 21.3619H38.9309ZM56.9058 34.2237C54.5249 34.2237 52.5382 33.4483 50.946 31.8974C49.3686 30.3316 48.5799 28.3856 48.5799 26.0592C48.5799 23.7329 49.3686 21.7943 50.946 20.2435C52.5382 18.6777 54.5249 17.8948 56.9058 17.8948C58.4683 17.8948 59.882 18.2527 61.1469 18.9685C62.4266 19.6693 63.4237 20.6461 64.138 21.8987C64.8523 23.1364 65.2094 24.5233 65.2094 26.0592C65.2094 28.4005 64.4207 30.3466 62.8433 31.8974C61.2659 33.4483 59.2868 34.2237 56.9058 34.2237ZM56.9058 31.025C57.8284 31.025 58.6618 30.8163 59.4058 30.3987C60.1499 29.9663 60.7302 29.3698 61.1469 28.6092C61.5784 27.8487 61.7942 26.9987 61.7942 26.0592C61.7942 24.6426 61.3255 23.4645 60.388 22.525C59.4654 21.5706 58.3047 21.0935 56.9058 21.0935C55.5219 21.0935 54.3537 21.5706 53.4014 22.525C52.4639 23.4645 51.9951 24.6426 51.9951 26.0592C51.9951 27.4759 52.4639 28.6614 53.4014 29.6158C54.3537 30.5553 55.5219 31.025 56.9058 31.025ZM73.1166 18.2303C75.4082 18.2303 77.2982 18.9685 78.7862 20.4448C80.2892 21.9061 81.0407 23.7702 81.0407 26.0369C81.0407 28.3035 80.2892 30.1825 78.7862 31.6737C77.2982 33.15 75.4082 33.8882 73.1166 33.8882H67.2014V18.2303H73.1166ZM73.0273 30.7342C74.3666 30.7342 75.4603 30.2943 76.3085 29.4145C77.1567 28.5347 77.5808 27.4088 77.5808 26.0369C77.5808 24.665 77.1567 23.5466 76.3085 22.6816C75.4603 21.8167 74.3666 21.3842 73.0273 21.3842H70.5942V30.7342H73.0273ZM93.9916 32.479C92.772 33.6421 91.2318 34.2237 89.3711 34.2237C87.5112 34.2237 85.971 33.6421 84.7508 32.479C83.5305 31.3158 82.9204 29.8246 82.9204 28.0053V18.2303H86.3133V27.8487C86.3133 28.8031 86.596 29.5711 87.1615 30.1527C87.7269 30.7342 88.4635 31.025 89.3711 31.025C90.2791 31.025 91.0157 30.7342 91.5809 30.1527C92.1613 29.5711 92.4515 28.8031 92.4515 27.8487V18.2303H95.822V28.0053C95.822 29.8246 95.2122 31.3158 93.9916 32.479ZM105.725 34.2237C104.222 34.2237 102.852 33.8733 101.618 33.1724C100.383 32.4566 99.4149 31.4798 98.7157 30.2421C98.0166 28.9895 97.6666 27.6027 97.6666 26.0816C97.6666 23.7553 98.4327 21.8092 99.9657 20.2435C101.513 18.6777 103.433 17.8948 105.725 17.8948C107.629 17.8948 109.274 18.4689 110.658 19.6171C112.042 20.7654 112.919 22.2716 113.292 24.1356H109.899C109.691 23.5242 109.385 22.9948 108.984 22.5474C108.582 22.0851 108.098 21.7347 107.533 21.4961C106.982 21.2426 106.379 21.1158 105.725 21.1158C104.401 21.1158 103.292 21.593 102.399 22.5474C101.521 23.4869 101.082 24.665 101.082 26.0816C101.082 27.4834 101.521 28.654 102.399 29.5935C103.292 30.5329 104.401 31.0027 105.725 31.0027C106.751 31.0027 107.637 30.7119 108.381 30.1303C109.125 29.5487 109.638 28.7584 109.921 27.7592H113.336C112.979 29.6979 112.101 31.2637 110.702 32.4566C109.318 33.6347 107.66 34.2237 105.725 34.2237ZM125.63 18.2303V21.3842H121.277V33.8882H117.884V21.3842H113.554V18.2303H125.63ZM132.241 34.2014C130.426 34.2014 128.959 33.7242 127.843 32.7698C126.743 31.8005 126.192 30.4808 126.192 28.8106H129.607C129.607 29.1834 129.674 29.5189 129.808 29.8171C129.957 30.1005 130.15 30.3316 130.388 30.5106C130.641 30.6895 130.924 30.8237 131.236 30.9132C131.549 31.0027 131.876 31.0474 132.218 31.0474C132.903 31.0474 133.491 30.8834 133.982 30.5553C134.488 30.2272 134.741 29.7798 134.741 29.2132C134.741 28.9746 134.681 28.7658 134.562 28.5869C134.443 28.393 134.301 28.2439 134.138 28.1395C133.989 28.0202 133.751 27.9009 133.424 27.7816C133.111 27.6623 132.843 27.5729 132.62 27.5132C132.397 27.4535 132.062 27.3716 131.616 27.2671C131.259 27.1777 130.991 27.1106 130.812 27.0658C130.634 27.0211 130.366 26.9466 130.009 26.8421C129.667 26.7377 129.399 26.6483 129.205 26.5737C129.026 26.4843 128.788 26.365 128.491 26.2158C128.193 26.0667 127.962 25.9176 127.799 25.7685C127.635 25.6193 127.449 25.4329 127.241 25.2092C127.047 24.9856 126.899 24.7545 126.794 24.5158C126.69 24.2623 126.601 23.979 126.526 23.6658C126.452 23.3377 126.415 22.9948 126.415 22.6369C126.415 21.1456 126.921 19.99 127.933 19.1698C128.944 18.3496 130.328 17.9395 132.084 17.9395C133.855 17.9395 135.232 18.3869 136.214 19.2816C137.211 20.1764 137.709 21.4066 137.709 22.9724H134.361C134.361 22.3311 134.131 21.8466 133.669 21.5185C133.223 21.1755 132.665 21.004 131.995 21.004C131.4 21.004 130.879 21.1308 130.433 21.3842C130.001 21.6377 129.785 22.0031 129.785 22.4803C129.785 22.704 129.837 22.9053 129.942 23.0842C130.06 23.2483 130.194 23.39 130.343 23.5092C130.493 23.6137 130.723 23.7255 131.035 23.8448C131.348 23.9492 131.609 24.0311 131.817 24.0908C132.04 24.1356 132.368 24.2101 132.799 24.3145C133.275 24.4338 133.632 24.5308 133.87 24.6053C134.109 24.665 134.451 24.7768 134.897 24.9408C135.343 25.09 135.685 25.239 135.924 25.3882C136.176 25.5373 136.467 25.7387 136.794 25.9921C137.122 26.2308 137.368 26.4992 137.531 26.7974C137.709 27.0808 137.859 27.4311 137.977 27.8487C138.111 28.2514 138.178 28.6913 138.178 29.1685C138.178 30.2571 137.903 31.189 137.352 31.9645C136.801 32.74 136.087 33.3066 135.209 33.6645C134.346 34.0224 133.357 34.2014 132.241 34.2014ZM150.71 18.2303V21.3842H146.358V33.8882H142.965V21.3842H138.634V18.2303H150.71ZM161.17 33.8882L160.076 30.9132H153.849L152.777 33.8882H149.206L155.322 18.2303H158.514L164.831 33.8882H161.17ZM156.951 22.3685L154.92 27.9606H159.005L156.951 22.3685ZM174.736 33.8882L171.701 28.5421H169.535V33.8882H166.143V18.2303H172.46C173.486 18.2303 174.417 18.454 175.25 18.9014C176.084 19.3338 176.731 19.9452 177.192 20.7356C177.668 21.5259 177.906 22.4206 177.906 23.4198C177.906 24.4189 177.653 25.3211 177.147 26.1264C176.642 26.9316 175.95 27.543 175.071 27.9606L178.531 33.8882H174.736ZM169.535 21.3619V25.4106H172.236C172.921 25.4106 173.464 25.2242 173.866 24.8514C174.283 24.4785 174.491 23.9939 174.491 23.3974C174.491 22.9948 174.401 22.6443 174.223 22.3461C174.044 22.0329 173.784 21.7943 173.442 21.6303C173.1 21.4514 172.698 21.3619 172.236 21.3619H169.535Z" fill="white"/>
</g>
<defs>
<clipPath id="clip0_1_412">
<rect width="200" height="51" fill="white"/>
</clipPath>
</defs>
</svg>
