<svg width="149" height="42" viewBox="0 0 149 42" fill="none" xmlns="http://www.w3.org/2000/svg">
<g clip-path="url(#clip0_1_26)">
<path d="M57.5567 30.9996C57.5567 31.4918 57.9986 31.9293 58.4958 31.9293H63.1916C63.6888 31.9293 64.1308 31.4918 64.1308 30.9996V11.4764C64.1308 10.9842 63.6888 10.5467 63.1916 10.5467H47.5022C47.005 10.5467 46.563 10.9842 46.563 11.4764V18.7498C46.563 23.2888 45.5134 26.1871 42.5854 27.1168C41.7568 27.3903 41.4805 27.5543 41.7568 28.484L42.5302 31.3824C42.7512 32.0933 43.1931 32.2574 44.0218 32.148C49.6015 31.1636 52.8057 26.3512 52.8057 18.7498V15.1404H57.5567V30.9996ZM26.2331 6.00775L26.5645 2.56248C26.6198 1.85156 26.1778 1.46875 25.4596 1.46875H1.81499C1.04157 1.46875 0.599609 1.79687 0.599609 2.56248V5.789C0.599609 6.66399 0.931076 7.10148 1.81499 7.10148H9.88068V30.8902C9.88068 31.8199 9.99117 31.9293 10.8751 31.9293H15.8471C16.731 31.9293 16.8415 31.7652 16.8415 30.7808V7.10148H24.5757C25.5701 7.10148 26.1778 6.88273 26.2331 6.00775Z" fill="#191C20"/>
<path d="M27.8897 18.805C28.2211 16.7269 29.6575 14.9769 31.8673 14.9769C34.1323 14.9769 35.2372 16.891 35.2372 18.805H27.8897ZM41.7008 21.7034C41.7008 14.9769 39.2148 9.89108 32.254 9.89108C25.4589 9.89108 20.8184 14.3754 20.8184 21.2112C20.8184 28.2658 25.2932 32.5314 32.254 32.5314C34.7952 32.5314 37.8889 32.0939 40.2092 31.0548C40.9274 30.7267 41.2036 30.3986 40.9826 29.633L40.2644 26.6252C40.0987 26.0237 39.5462 25.9143 39.049 26.133C37.2812 26.8986 35.4029 27.2815 33.5246 27.2815C30.8176 27.2815 28.3869 25.7502 27.8344 22.9612H40.1539C41.2036 23.0159 41.7008 22.7971 41.7008 21.7034ZM147.66 10.5473H142.964C142.467 10.5473 142.025 10.9848 142.025 11.477V18.5863H135.174V11.477C135.174 10.9848 134.733 10.5473 134.235 10.5473H129.54C129.042 10.5473 128.6 10.9848 128.6 11.477V31.0002C128.6 31.547 129.042 31.9298 129.54 31.9298H134.235C134.733 31.9298 135.174 31.4923 135.174 31.0002V23.344H142.025V31.0002C142.025 31.547 142.467 31.9298 142.964 31.9298H147.66C148.157 31.9298 148.599 31.4923 148.599 31.0002V11.477C148.599 10.9848 148.157 10.5473 147.66 10.5473ZM124.07 10.5473H119.43C118.933 10.5473 118.491 10.9848 118.491 11.477V14.1566L111.254 21.4847V11.477C111.254 10.9848 110.867 10.5473 110.314 10.5473H105.674C105.177 10.5473 104.735 10.9848 104.735 11.477V31.0002C104.735 31.547 105.177 31.9298 105.674 31.9298H110.314C110.812 31.9298 111.254 31.4923 111.254 31.0002V28.1018L118.491 20.8284V31.0002C118.491 31.4923 118.933 31.9298 119.43 31.9298H124.07C124.568 31.9298 125.009 31.4923 125.009 31.0002V11.477C125.009 10.9848 124.568 10.5473 124.07 10.5473ZM91.0341 27.6643C89.874 27.6643 88.6034 27.1174 87.7747 26.4065C87.6642 26.0783 87.609 25.7502 87.5537 25.3674V17.3285C88.2719 16.5629 89.874 15.7426 91.1446 15.7426C94.404 15.7426 95.2327 19.0238 95.2327 21.7034C95.2327 24.2737 94.2383 27.6643 91.0341 27.6643ZM73.6873 21.6487C73.6873 18.9691 74.516 15.6879 77.7754 15.6879C79.0461 15.6879 80.7034 16.5082 81.3663 17.2738V25.3674C81.3111 25.7502 81.2558 26.0783 81.1453 26.4065C80.3167 27.0627 79.0461 27.6643 77.8859 27.6643C74.737 27.6643 73.6873 24.2737 73.6873 21.6487ZM92.8572 10.3286C90.8684 10.3286 88.7691 11.1489 87.5537 12.2426V8.68797H87.4985V1.85213C87.4985 0.813082 86.8908 0.758396 86.1173 0.867769L82.416 1.35995C81.8083 1.46932 81.4216 1.68807 81.4216 2.50837V12.2426C80.1509 11.2036 78.1069 10.3286 76.1181 10.3286C69.986 10.3286 66.837 15.6332 66.837 21.2112C66.837 27.008 69.986 32.9689 76.5048 32.9689C78.2174 32.9689 79.8195 32.4767 80.9796 31.6017V40.461C80.9796 41.4453 81.4768 41.8281 82.3607 41.8281H86.725C87.609 41.8281 88.1062 41.5 88.1062 40.461V31.6564C89.2663 32.5314 90.8684 33.0236 92.581 33.0236C99.0446 33.0236 102.249 27.1174 102.249 21.2659C102.138 15.6332 99.0446 10.3286 92.8572 10.3286Z" fill="#191C20"/>
</g>
<defs>
<clipPath id="clip0_1_26">
<rect width="149" height="42" fill="white"/>
</clipPath>
</defs>
</svg>
